<?xml version="1.0" encoding="UTF-8" standalone="no"?>
<svg width="42px" height="43px" viewBox="0 0 42 43" version="1.1" xmlns="http://www.w3.org/2000/svg" xmlns:xlink="http://www.w3.org/1999/xlink" xmlns:sketch="http://www.bohemiancoding.com/sketch/ns">
    <!-- Generator: Sketch 3.3.3 (12072) - http://www.bohemiancoding.com/sketch -->
    <title>idea</title>
    <desc>Created with Sketch.</desc>
    <defs></defs>
    <g id="Page-1" stroke="none" stroke-width="1" fill="none" fill-rule="evenodd" sketch:type="MSPage">
        <g id="iPhone-6" sketch:type="MSArtboardGroup" transform="translate(-69.000000, -4026.000000)" stroke="#FFFFFF" stroke-width="2">
            <g id="Uitgelicht" sketch:type="MSLayerGroup" transform="translate(45.000000, 3593.000000)">
                <g id="Tip-van-de-week" transform="translate(0.000000, 84.000000)" sketch:type="MSShapeGroup">
                    <g id="idea" transform="translate(24.000000, 349.000000)">
                        <path d="M0,20.625 L3.75,20.625" id="Shape"></path>
                        <path d="M6,6.06222222 L8.71875,8.80916667" id="Shape"></path>
                        <path d="M20.625,0 L20.625,3.78888889" id="Shape"></path>
                        <path d="M35.25,6.06222222 L32.53125,8.80916667" id="Shape"></path>
                        <path d="M41.25,20.625 L37.5,20.625" id="Shape"></path>
                        <path d="M31.875,20.8388889 C31.875,14.5872222 26.8125,9.47222222 20.625,9.47222222 C14.4375,9.47222222 9.375,14.5872222 9.375,20.8388889 C9.375,25.7644444 12.46875,30.0269444 16.875,31.5425 L16.875,35.9944444 L24.375,35.9944444 L24.375,31.5425 C28.78125,30.0269444 31.875,25.7644444 31.875,20.8388889 L31.875,20.8388889 Z" id="Shape"></path>
                        <path d="M16.875,41.25 L24.375,41.25" id="Shape"></path>
                    </g>
                </g>
            </g>
        </g>
    </g>
</svg>