<?xml version="1.0" encoding="UTF-8" standalone="no"?>
<svg width="24px" height="24px" viewBox="0 0 24 24" version="1.1" xmlns="http://www.w3.org/2000/svg" xmlns:xlink="http://www.w3.org/1999/xlink" xmlns:sketch="http://www.bohemiancoding.com/sketch/ns">
    <!-- Generator: Sketch 3.3.3 (12072) - http://www.bohemiancoding.com/sketch -->
    <title>Shape + Shape + Oval</title>
    <desc>Created with Sketch.</desc>
    <defs></defs>
    <g id="Page-1" stroke="none" stroke-width="1" fill="none" fill-rule="evenodd" sketch:type="MSPage">
        <g id="Home" sketch:type="MSArtboardGroup" transform="translate(-110.000000, -2702.000000)" stroke="#FFFFFF">
            <g id="De-Jury" sketch:type="MSLayerGroup" transform="translate(102.000000, 2342.000000)">
                <g id="Naam" transform="translate(0.000000, 353.000000)" sketch:type="MSShapeGroup">
                    <g id="Shape-+-Shape-+-Oval" transform="translate(9.000000, 8.000000)">
                        <g>
                            <path d="M11,15 L11,15 C8.8,15 7,13.2 7,11 L7,9 C7,6.8 8.8,5 11,5 L11,5 C13.2,5 15,6.8 15,9 L15,11 C15,13.2 13.2,15 11,15 L11,15 Z" id="Shape"></path>
                            <path d="M17.15,20.1 C16.05,18.8 14.45,18 12.6,18 L9.6,18 C7.75,18 6.1,18.85 5,20.15" id="Shape"></path>
                            <circle id="Oval" cx="11" cy="11" r="11"></circle>
                        </g>
                    </g>
                </g>
            </g>
        </g>
    </g>
</svg>