<svg width="32px" height="31px" viewBox="0 0 32 31" version="1.1" xmlns="http://www.w3.org/2000/svg" xmlns:xlink="http://www.w3.org/1999/xlink" xmlns:sketch="http://www.bohemiancoding.com/sketch/ns">
    <g id="icon-cross" stroke="none" stroke-width="1" fill="none" fill-rule="evenodd" sketch:type="MSPage">
        <g id="Styleguide" sketch:type="MSArtboardGroup" transform="translate(-249.000000, -1726.000000)" fill="#55513B">
            <path d="M255.570629,1755.65125 L265.054974,1746.1669 L265.054974,1746.1669 L274.53932,1755.65125 L274.53954,1755.65103 C275.843534,1756.9204 277.919183,1756.92006 279.19711,1755.64214 C280.475037,1754.36421 280.475373,1752.28856 279.206225,1750.98435 L269.721879,1741.5 L279.17354,1732.04834 L279.17354,1732.04834 C280.475287,1730.74659 280.48584,1728.64659 279.19711,1727.35786 C277.90838,1726.06913 275.808383,1726.07969 274.506635,1727.38143 L265.054974,1736.8331 L255.603314,1727.38143 C254.301566,1726.07969 252.201569,1726.06913 250.912839,1727.35786 C249.624109,1728.64659 249.634661,1730.74659 250.936409,1732.04834 L250.936409,1732.04834 L260.38807,1741.5 L250.903724,1750.98435 C249.634576,1752.28856 249.634912,1754.36421 250.912839,1755.64214 C252.190766,1756.92006 254.266415,1756.9204 255.570409,1755.65103 Z" id="Rectangle-9-Copy-26" sketch:type="MSShapeGroup"></path>
        </g>
    </g>
</svg>