<?xml version="1.0" encoding="utf-8"?>
<!-- Generator: Adobe Illustrator 16.0.0, SVG Export Plug-In . SVG Version: 6.00 Build 0)  -->
<!DOCTYPE svg PUBLIC "-//W3C//DTD SVG 1.1//EN" "http://www.w3.org/Graphics/SVG/1.1/DTD/svg11.dtd">
<svg version="1.1" id="Layer_1" xmlns="http://www.w3.org/2000/svg" xmlns:xlink="http://www.w3.org/1999/xlink" x="0px" y="0px"
	 width="595.279px" height="841.891px" viewBox="0 0 595.279 841.891" enable-background="new 0 0 595.279 841.891"
	 xml:space="preserve">
<g>
	<circle fill="#FFFFFF" cx="308.07" cy="428.546" r="69.081"/>
	<circle fill="none" stroke="#8E8665" stroke-width="4" stroke-miterlimit="10" cx="307.998" cy="428.546" r="65.05"/>
	<circle fill="none" stroke="#8E8665" stroke-width="4" stroke-miterlimit="10" cx="307.998" cy="428.546" r="48.081"/>
	<g>
		<path fill="none" stroke="#FFFFFF" stroke-width="10" stroke-miterlimit="10" d="M307.928,480.021l-0.637-0.142
			c-5.373-1.272-17.11-6.151-24.04-11.666c-6.788-5.374-13.717-13.646-13.646-34.011l0.071-40.231l1.201-0.849
			c8.556-5.798,20.435-8.485,37.263-8.485c16.828,0.071,28.636,2.757,37.191,8.626l1.202,0.849l-0.07,40.232
			c-0.071,20.364-7,28.565-13.788,33.939c-7,5.516-18.667,10.323-24.111,11.525L307.928,480.021z M275.332,397.011l-0.071,37.191
			c-0.07,17.89,5.516,24.748,11.525,29.556c5.728,4.596,16.051,9.051,21.142,10.465c5.161-1.344,15.484-5.798,21.212-10.323
			c6.01-4.737,11.596-11.596,11.666-29.484l0.071-37.192c-7.425-4.596-18.172-6.858-32.808-6.858
			C293.433,390.364,282.756,392.485,275.332,397.011z"/>
	</g>
	<g>
		<path fill="#8E8665" d="M307.928,480.021l-0.637-0.142c-5.373-1.272-17.11-6.151-24.04-11.666
			c-6.788-5.374-13.717-13.646-13.646-34.011l0.071-40.231l1.201-0.849c8.556-5.798,20.435-8.485,37.263-8.485
			c16.828,0.071,28.636,2.757,37.191,8.626l1.202,0.849l-0.07,40.232c-0.071,20.364-7,28.565-13.788,33.939
			c-7,5.516-18.667,10.323-24.111,11.525L307.928,480.021z M275.332,397.011l-0.071,37.191c-0.07,17.89,5.516,24.748,11.525,29.556
			c5.728,4.596,16.051,9.051,21.142,10.465c5.161-1.344,15.484-5.798,21.212-10.323c6.01-4.737,11.596-11.596,11.666-29.484
			l0.071-37.192c-7.425-4.596-18.172-6.858-32.808-6.858C293.433,390.364,282.756,392.485,275.332,397.011z"/>
	</g>
	<path fill="#FFFFFF" d="M308.14,387.465c-13.858,0-26.515,1.838-35.636,7.99c0,0-0.071,26.939-0.071,38.747
		c-0.07,19.374,6.435,26.869,12.586,31.818c6.576,5.232,17.889,9.97,22.909,11.102c5.02-1.132,16.403-5.869,22.979-11.03
		c6.151-4.879,12.728-12.374,12.728-31.748c0-11.737,0.07-38.747,0.07-38.747C334.655,389.445,321.998,387.536,308.14,387.465z"/>
	<g>
		<path fill="#5B553A" d="M255.393,420.91C255.393,420.98,255.323,420.98,255.393,420.91l-6.293-1.202c0,0-0.07,0-0.07-0.071
			l0.424-2.333c0.354-1.909,1.909-2.616,3.818-2.192c1.909,0.354,2.898,1.556,2.545,3.465L255.393,420.91z M254.827,418.435
			c0.212-1.061-0.425-1.838-1.768-2.121c-1.344-0.282-2.404,0.213-2.616,1.273l-0.212,1.272v0.07l4.312,0.849
			c0,0,0.071,0,0.071-0.07L254.827,418.435z"/>
		<path fill="#5B553A" d="M257.585,408.606C257.585,408.606,257.656,408.606,257.585,408.606l0.919,0.283c0,0,0.07,0,0,0.07
			l-1.485,4.243c0,0,0,0.07-0.07,0l-6.01-2.122c0,0-0.071,0,0-0.07l1.484-4.242c0,0,0-0.071,0.07,0l0.849,0.282c0,0,0.071,0,0,0.071
			l-1.131,3.182v0.07l1.484,0.495h0.071l0.989-2.758c0,0,0-0.07,0.071,0l0.849,0.283c0,0,0.07,0,0,0.071l-0.99,2.757v0.071
			l1.556,0.565h0.07L257.585,408.606z"/>
		<path fill="#5B553A" d="M261.544,402.738C261.474,402.809,261.474,402.809,261.544,402.738l-5.515-3.323v-0.071l0.494-0.848h0.071
			l4.596,2.757h0.071l1.626-2.687h0.07l0.778,0.495v0.07L261.544,402.738z"/>
		<path fill="#5B553A" d="M267.06,393.051C267.13,392.98,267.13,392.98,267.06,393.051l0.777,0.565v0.071l-2.828,3.535h-0.07
			l-4.95-3.959v-0.07l2.828-3.536h0.071l0.707,0.566v0.071l-2.121,2.616v0.071l1.202,0.99h0.07l1.839-2.263h0.07l0.707,0.565v0.071
			l-1.839,2.263v0.071l1.273,1.061h0.07L267.06,393.051z"/>
		<path fill="#5B553A" d="M271.514,386.829c0.919,0.919,0.849,2.404-0.07,3.323c-0.92,0.919-2.404,0.849-3.323-0.071l-2.899-3.041
			v-0.07l0.707-0.708h0.071l2.898,3.041c0.495,0.495,1.272,0.495,1.768,0.071c0.495-0.495,0.495-1.273,0.071-1.768l-2.899-3.041
			v-0.071l0.707-0.707h0.07L271.514,386.829z"/>
		<path fill="#5B553A" d="M278.302,384.425c0,0-0.071,0-0.142,0l-3.323-1.272h-0.07l-0.142,0.919c0,0.071,0,0.071,0,0.142
			l1.343,1.838v0.071l-0.848,0.565h-0.071l-3.747-5.162v-0.07l0.849-0.566h0.07l1.414,1.98h0.071l0.565-3.536l0,0l1.061-0.778
			c0.07,0,0.07,0,0.07,0.071l-0.565,3.536c0,0,0,0.071,0.07,0.071l4.172,1.626c0.071,0,0.071,0.071,0,0.071L278.302,384.425z"/>
		<path fill="#5B553A" d="M283.181,381.667c-1.627,0.849-2.688,0.283-3.111-0.495v-0.071l0.919-0.495h0.071
			c0.212,0.424,0.919,0.495,1.626,0.141s0.989-0.99,0.707-1.484c-0.212-0.354-0.707-0.495-1.556-0.142
			c-1.414,0.565-2.475,0.636-3.04-0.495c-0.566-1.061,0.141-2.192,1.131-2.757c1.061-0.566,2.404-0.495,2.97,0.565v0.071
			l-0.919,0.495h-0.071c-0.141-0.354-0.777-0.566-1.484-0.212c-0.565,0.283-0.849,0.919-0.565,1.344
			c0.282,0.495,0.919,0.283,1.556,0.07c0.919-0.354,2.333-0.848,3.11,0.566C285.019,379.829,284.524,380.96,283.181,381.667z"/>
		<path fill="#5B553A" d="M289.827,378.486C289.898,378.556,289.827,378.556,289.827,378.486l-0.99,0.424h-0.07l-1.839-5.021
			c0,0,0-0.071-0.07,0l-1.627,0.566h-0.07l-0.354-0.849v-0.071l4.313-1.626h0.07l0.354,0.848v0.071l-1.626,0.565
			c0,0-0.071,0,0,0.071L289.827,378.486z"/>
		<path fill="#5B553A" d="M298.029,375.233C298.1,375.233,298.1,375.233,298.029,375.233l0.283,0.919v0.071l-4.384,0.99h-0.07
			l-1.414-6.222v-0.071l4.384-0.99h0.07l0.212,0.919v0.071l-3.323,0.778c0,0-0.07,0,0,0.071l0.354,1.556c0,0,0,0.07,0.071,0
			l2.828-0.637h0.07l0.212,0.919v0.071l-2.828,0.636c0,0-0.07,0,0,0.071l0.354,1.626c0,0,0,0.071,0.071,0L298.029,375.233z"/>
		<path fill="#5B553A" d="M306.231,374.031C306.231,374.031,306.16,374.102,306.231,374.031l-0.142,0.212l-0.354,1.061
			c0,0.071-0.07,0.071-0.07,0.071h-1.061c-0.07,0-0.07-0.071-0.07-0.071l1.979-6.363l0.07-0.071h1.626c0,0,0.071,0,0.071,0.071
			l2.121,6.363c0,0,0,0.071-0.071,0.071h-1.061c0,0-0.07,0-0.07-0.071l-0.283-0.99l-0.07-0.283l-0.07-0.071L306.231,374.031z
			 M306.514,372.971C306.514,373.041,306.514,373.041,306.514,372.971h1.979c0,0,0.07,0,0-0.071l-0.99-3.041
			c0-0.071-0.07-0.071-0.07,0L306.514,372.971z"/>
		<path fill="#5B553A" d="M318.392,376.294L318.392,376.294l0.778-5.303c0-0.071-0.07-0.071-0.07,0l-1.98,5.091c0,0,0,0-0.07,0
			l-1.697-0.283h-0.07l-0.354-5.444c0-0.071-0.071-0.071-0.071,0l-0.849,5.232c0,0,0,0.07-0.07,0.07l-0.99-0.141
			c0,0-0.07,0-0.07-0.071l0.99-6.293c0,0,0-0.071,0.07-0.071l1.909,0.283c0,0,0.07,0,0.07,0.071l0.425,5.445
			c0,0.07,0.07,0.07,0.07,0l2.051-5.021l0.07-0.071l1.909,0.283c0,0,0.071,0,0.071,0.071l-0.99,6.293c0,0,0,0.071-0.07,0.071
			L318.392,376.294z"/>
		<path fill="#5B553A" d="M323.907,376.364h-0.07l-0.142,0.142l-0.637,0.919h-0.07l-0.99-0.354c0,0-0.07-0.07,0-0.07l3.96-5.374
			h0.07l1.556,0.495c0,0,0.07,0,0.07,0.071l-0.07,6.717c0,0,0,0.07-0.07,0.07l-0.99-0.354c0,0-0.07,0-0.07-0.071v-0.99v-0.283
			c0,0,0-0.071-0.071-0.071L323.907,376.364z M324.473,375.445L324.473,375.445l1.909,0.707h0.071l0.07-3.182
			c0-0.071-0.07-0.071-0.07,0L324.473,375.445z"/>
		<path fill="#5B553A" d="M331.473,380.748L331.473,380.748l-0.989-0.424v-0.071l2.333-4.808v-0.071l-1.556-0.707v-0.071
			l0.424-0.849h0.071l4.172,1.98v0.071l-0.425,0.849h-0.07l-1.556-0.707h-0.071L331.473,380.748z"/>
		<path fill="#5B553A" d="M339.533,384.354C339.533,384.354,339.533,384.425,339.533,384.354l-0.495,0.848h-0.07l-3.747-2.475
			v-0.071l3.464-5.303h0.071l3.747,2.475v0.071l-0.495,0.778h-0.07l-2.828-1.838h-0.071l-0.849,1.343v0.071l2.476,1.626v0.071
			l-0.495,0.778h-0.071l-2.475-1.626h-0.07l-0.919,1.415v0.071L339.533,384.354z"/>
		<path fill="#5B553A" d="M346.11,388.172c-0.849,0.99-2.334,1.061-3.323,0.212c-0.99-0.849-1.061-2.333-0.212-3.323l2.757-3.182
			h0.071l0.777,0.637v0.071l-2.758,3.182c-0.424,0.495-0.354,1.272,0.142,1.768s1.272,0.424,1.768-0.142l2.758-3.182h0.07
			l0.778,0.636v0.071L346.11,388.172z"/>
		<path fill="#5B553A" d="M351.059,392.769L351.059,392.769l-1.272,2.616c0,0.07-0.071,0-0.071,0l-0.707-0.778v-0.071l1.132-2.404
			v-0.07l-0.919-1.061c0,0,0,0-0.071,0l-1.838,1.555h-0.071l-0.636-0.778v-0.07l4.808-4.172h0.07l1.769,2.05
			c0.707,0.778,0.636,2.051-0.213,2.758C352.473,392.91,351.696,392.98,351.059,392.769z M350.989,391.566
			c0.354,0.354,0.919,0.354,1.343,0c0.425-0.354,0.425-0.99,0.142-1.343l-0.99-1.131h-0.07l-1.414,1.272v0.071L350.989,391.566z"/>
		<path fill="#5B553A" d="M355.372,399.769L355.372,399.769l0.636,0.919v0.07c-0.354,0.213-2.121,0.708-3.323-1.061
			c-1.061-1.626-0.495-3.111,1.132-4.171c1.626-1.061,3.394-1.061,4.454,0.566c1.132,1.697,0.142,3.182-0.354,3.465h-0.07
			l-0.565-0.92v-0.07c0.212-0.212,0.777-0.99,0.141-1.98c-0.636-0.919-1.768-0.919-2.97-0.141c-1.202,0.777-1.556,1.768-0.919,2.687
			C354.099,400.122,355.089,399.839,355.372,399.769z"/>
		<path fill="#5B553A" d="M355.372,404.081C355.372,404.081,355.372,404.011,355.372,404.081l5.798-2.757h0.07l0.425,0.919v0.07
			l-4.879,2.263c0,0,0,0,0,0.071l1.343,2.828v0.07l-0.848,0.425h-0.071L355.372,404.081z"/>
		<path fill="#5B553A" d="M361.524,413.697c-1.202,0.425-2.546-0.282-2.97-1.555c-0.425-1.202,0.282-2.546,1.484-2.971l3.96-1.272
			h0.07l0.283,0.99v0.07l-3.96,1.273c-0.636,0.212-0.989,0.919-0.777,1.555c0.212,0.637,0.919,0.99,1.556,0.778l3.959-1.272h0.071
			l0.282,0.989v0.071L361.524,413.697z"/>
		<path fill="#5B553A" d="M360.605,420.062l-0.495-3.041c0,0,0-0.07,0.07-0.07l6.293-1.061c0,0,0.07,0,0.07,0.07l0.495,3.041
			c0.142,0.989-0.565,1.838-1.556,2.05c-0.494,0.071-1.131-0.141-1.343-0.494c0-0.071-0.071,0-0.071,0
			c-0.142,0.494-0.565,0.989-1.131,1.061C361.665,421.829,360.745,421.192,360.605,420.062z M361.524,419.778
			c0.07,0.495,0.565,0.849,1.061,0.778c0.424-0.071,0.777-0.566,0.707-1.061l-0.283-1.839c0-0.07,0,0-0.07,0l-1.626,0.283
			c0,0-0.071,0-0.071,0.07L361.524,419.778z M365.978,419.071l-0.282-1.838c0,0,0,0-0.071,0l-1.556,0.282c0,0-0.07,0-0.07,0.071
			l0.283,1.768c0.07,0.354,0.494,0.777,0.919,0.707C365.624,419.85,366.049,419.566,365.978,419.071z"/>
	</g>
	<g>
		<path fill="#5B553A" d="M265.363,469.556C265.363,469.556,265.363,469.627,265.363,469.556l5.091-2.403h0.07l0.707,0.777V468
			l-6.01,2.97h-0.07l-1.132-1.131v-0.07l3.111-5.939c0,0,0.07-0.071,0.07,0l0.707,0.777c0,0,0,0,0,0.071L265.363,469.556z"/>
		<path fill="#5B553A" d="M270.241,473.728h-0.071l-0.141,0.071l-0.92,0.636h-0.07l-0.849-0.636v-0.071l5.516-3.747h0.07
			l1.272,0.989v0.071l-2.333,6.222c0,0-0.071,0.071-0.071,0l-0.848-0.636v-0.071l0.354-0.919l0.07-0.283v-0.07L270.241,473.728z
			 M271.09,473.092L271.09,473.092l1.556,1.272h0.07l1.131-2.97c0-0.071,0-0.071-0.07-0.071L271.09,473.092z"/>
		<path fill="#5B553A" d="M283.181,476.202C283.181,476.202,283.181,476.273,283.181,476.202l-3.182,5.586h-0.071l-1.202-0.707
			v-0.07l0.212-5.444c0-0.071-0.07-0.071-0.07-0.071l-2.404,4.172h-0.07l-0.919-0.495c0,0,0,0,0-0.07l3.182-5.516h0.07l1.202,0.707
			v0.071l-0.212,5.444c0,0.07,0.07,0.07,0.07,0.07l2.404-4.172h0.07L283.181,476.202z"/>
		<path fill="#5B553A" d="M294.281,480.445C294.281,480.516,294.281,480.516,294.281,480.445l-1.838,6.151c0,0,0,0.07-0.071,0
			l-1.272-0.425l-0.071-0.07l-0.989-5.374c0-0.07-0.071-0.07-0.071,0l-1.414,4.596c0,0,0,0.071-0.07,0l-0.99-0.282c0,0,0,0,0-0.071
			l1.909-6.08c0,0,0-0.071,0.071,0l1.272,0.424l0.07,0.07l0.99,5.374c0,0.071,0.07,0.071,0.07,0l1.414-4.596c0,0,0-0.071,0.071,0
			L294.281,480.445z"/>
		<path fill="#5B553A" d="M300.433,487.232C300.504,487.232,300.504,487.232,300.433,487.232l-0.142,0.99c0,0,0,0.07-0.07,0.07
			l-4.454-0.707c0,0-0.071,0-0.071-0.07l1.061-6.293c0,0,0-0.07,0.071-0.07l4.454,0.707c0,0,0.07,0,0.07,0.07l-0.141,0.919
			c0,0,0,0.071-0.071,0.071l-3.323-0.566c0,0-0.07,0-0.07,0.071l-0.283,1.556c0,0,0,0.07,0.071,0.07l2.898,0.495
			c0,0,0.071,0,0.071,0.07l-0.142,0.92c0,0,0,0.07-0.071,0.07l-2.898-0.495c0,0-0.071,0-0.071,0.071l-0.282,1.626
			c0,0,0,0.07,0.07,0.07L300.433,487.232z"/>
		<path fill="#5B553A" d="M303.827,488.576C303.827,488.576,303.756,488.576,303.827,488.576l0.141-6.435c0,0,0-0.07,0.071-0.07
			l2.333,0.07c1.909,0.071,2.828,1.414,2.828,3.395c-0.07,1.979-1.061,3.11-2.97,3.11L303.827,488.576z M306.231,487.586
			c1.132,0,1.768-0.707,1.768-2.121c0.071-1.414-0.565-2.333-1.696-2.333h-1.273c0,0-0.07,0-0.07,0.07l-0.142,4.384
			c0,0,0,0.071,0.071,0.071L306.231,487.586z"/>
		<path fill="#5B553A" d="M316.837,487.021C316.907,487.021,316.907,487.021,316.837,487.021l0.141,0.919c0,0,0,0.071-0.07,0.071
			l-4.454,0.495c0,0-0.071,0-0.071-0.071l-0.707-6.363c0,0,0-0.071,0.071-0.071l4.454-0.494c0,0,0.07,0,0.07,0.07l0.071,0.919
			c0,0,0,0.071-0.071,0.071l-3.394,0.354c0,0-0.07,0-0.07,0.07l0.141,1.556c0,0,0,0.07,0.071,0.07l2.898-0.354
			c0,0,0.071,0,0.071,0.071l0.07,0.919c0,0,0,0.07-0.07,0.07l-2.899,0.354c0,0-0.07,0-0.07,0.071l0.212,1.696
			c0,0,0,0.071,0.07,0.071L316.837,487.021z"/>
		<path fill="#5B553A" d="M323.271,483.909C323.271,483.909,323.271,483.98,323.271,483.909l1.768,2.334v0.07l-1.061,0.283h-0.07
			l-1.626-2.051c0,0,0-0.071-0.071,0l-1.414,0.354c0,0,0,0,0,0.07l0.565,2.334v0.07l-0.989,0.212h-0.071l-1.555-6.222v-0.071
			l2.615-0.636c0.99-0.283,2.122,0.354,2.334,1.484C324.049,482.707,323.766,483.485,323.271,483.909z M322.14,483.414
			c0.424-0.141,0.777-0.636,0.637-1.201c-0.142-0.495-0.708-0.849-1.132-0.707l-1.484,0.354c0,0,0,0,0,0.07l0.424,1.838
			c0,0,0,0.071,0.07,0L322.14,483.414z"/>
		<path fill="#5B553A" d="M328.15,485.323C328.15,485.323,328.079,485.323,328.15,485.323l-2.333-6.01v-0.07l0.919-0.354h0.071
			l1.908,5.02c0,0,0,0,0.071,0l2.898-1.131h0.071l0.354,0.849v0.07L328.15,485.323z"/>
		<path fill="#5B553A" d="M335.503,480.657c0,0-0.07,0.07,0,0.07v0.212l0.212,1.132c0,0.07,0,0.07,0,0.07l-0.919,0.495h-0.07
			l-1.272-6.576v-0.07l1.414-0.777h0.07l4.879,4.596v0.07l-0.919,0.495h-0.071l-0.707-0.707l-0.212-0.212h-0.07L335.503,480.657z
			 M335.221,479.597C335.221,479.597,335.291,479.667,335.221,479.597l1.768-0.92c0,0,0,0,0-0.07l-2.334-2.192
			c-0.07,0-0.07,0-0.07,0.071L335.221,479.597z"/>
		<path fill="#5B553A" d="M342.786,469.697C342.786,469.697,342.857,469.697,342.786,469.697l3.889,5.091v0.071l-1.061,0.848h-0.071
			l-4.949-2.333c-0.07,0-0.07,0-0.07,0.071l2.898,3.889v0.07l-0.848,0.637h-0.071l-3.818-5.091v-0.071l1.061-0.849h0.071
			l4.949,2.334c0.07,0,0.07,0,0.07-0.071l-2.898-3.889v-0.07L342.786,469.697z"/>
		<path fill="#5B553A" d="M349.503,472.455C349.433,472.455,349.433,472.455,349.503,472.455L344.907,468v-0.07l1.626-1.697
			c1.344-1.343,3.041-1.131,4.384,0.283c1.414,1.344,1.556,2.899,0.212,4.313L349.503,472.455z M350.422,470.051
			c0.778-0.777,0.707-1.768-0.282-2.758c-0.99-0.989-2.051-1.131-2.828-0.354l-0.92,0.92v0.07l3.111,3.04h0.071L350.422,470.051z"/>
	</g>
	<g>
		<circle fill="#8E8665" cx="253.767" cy="444.031" r="1.697"/>
		<path fill="#8E8665" d="M254.898,447.213c0.425,0,0.778,0.282,0.919,0.707c0.142,0.495-0.141,1.061-0.636,1.202
			c-0.071,0-0.212,0.07-0.283,0.07c-0.424,0-0.777-0.283-0.919-0.707c-0.142-0.495,0.142-1.061,0.637-1.202
			C254.756,447.213,254.827,447.213,254.898,447.213 M254.898,446.506c-0.142,0-0.282,0-0.495,0.07
			c-0.919,0.283-1.414,1.202-1.131,2.051c0.212,0.707,0.849,1.202,1.626,1.202c0.142,0,0.283,0,0.495-0.071
			c0.919-0.282,1.414-1.202,1.131-2.05C256.312,446.93,255.676,446.506,254.898,446.506L254.898,446.506z"/>
	</g>
	<g>
		<circle fill="#8E8665" cx="362.655" cy="444.314" r="1.697"/>
		<path fill="#8E8665" d="M361.452,447.425c0.071,0,0.213,0,0.283,0.07c0.495,0.142,0.777,0.707,0.637,1.202
			c-0.142,0.425-0.495,0.707-0.92,0.707c-0.07,0-0.212,0-0.282-0.07c-0.283-0.071-0.425-0.212-0.565-0.495
			c-0.142-0.283-0.142-0.495-0.071-0.707C360.675,447.708,361.029,447.425,361.452,447.425 M361.452,446.718
			c-0.707,0-1.414,0.495-1.626,1.202c-0.283,0.919,0.283,1.838,1.132,2.051c0.141,0.07,0.282,0.07,0.494,0.07
			c0.707,0,1.415-0.495,1.627-1.202c0.282-0.919-0.283-1.838-1.132-2.051C361.806,446.788,361.665,446.718,361.452,446.718
			L361.452,446.718z"/>
	</g>
	<g>
		<g>
			<defs>
				<path id="SVGID_1_" d="M308.07,391.425c-12.656,0-24.182,1.697-32.455,7.354c0,0,0,24.535,0,35.283
					c0,17.677,5.939,24.464,11.525,28.919c6.011,4.737,16.334,9.05,20.93,10.111c4.596-1.062,14.919-5.374,20.929-10.111
					c5.586-4.455,11.525-11.242,11.525-28.919c0-10.748,0-35.283,0-35.283C332.251,393.122,320.726,391.425,308.07,391.425z"/>
			</defs>
			<clipPath id="SVGID_2_">
				<use xlink:href="#SVGID_1_"  overflow="visible"/>
			</clipPath>
			<polygon clip-path="url(#SVGID_2_)" fill="#88BB40" points="343.069,366.465 344.554,364.91 343.989,364.273 345.615,362.647 
				342.857,359.89 339.675,363.072 337.624,361.021 339.18,359.465 338.473,358.829 340.099,357.203 337.412,354.445 
				334.231,357.627 332.18,355.577 333.736,354.092 333.029,353.385 334.655,351.688 331.898,349.001 328.786,352.112 
				326.807,350.203 328.291,348.647 327.584,347.87 329.21,346.243 326.453,343.557 323.271,346.667 321.362,344.759 
				322.917,343.203 322.069,342.425 323.696,340.799 321.008,338.042 317.826,341.223 315.917,339.314 317.473,337.829 
				316.624,336.981 318.251,335.354 315.493,332.597 312.382,335.708 310.544,333.94 312.029,332.385 311.18,331.466 
				312.807,329.839 310.049,327.152 306.867,330.264 305.1,328.496 306.655,326.94 305.665,326.021 307.291,324.395 
				304.605,321.637 212.615,413.627 213.534,414.617 211.908,416.243 214.665,418.93 213.111,420.485 215.797,423.172 
				218.979,420.062 218.979,420.062 217.353,421.688 220.039,424.374 218.555,425.93 221.241,428.617 224.353,425.435 
				224.423,425.435 222.797,427.062 225.484,429.818 223.928,431.304 226.615,433.99 229.797,430.879 229.797,430.879 
				228.171,432.506 230.858,435.192 229.372,436.748 232.06,439.435 235.241,436.253 235.241,436.324 233.615,437.95 
				236.302,440.637 234.746,442.122 237.504,444.879 240.615,441.697 240.686,441.697 239.06,443.324 241.676,446.011 
				240.191,447.566 242.878,450.253 246.06,447.142 246.06,447.142 244.433,448.769 247.12,451.455 245.565,453.011 
				248.323,455.697 251.433,452.516 251.504,452.586 249.878,454.213 252.565,456.899 251.009,458.385 253.696,461.071 
				345.685,369.082 			"/>
		</g>
		<g>
			<defs>
				<path id="SVGID_3_" d="M308.07,391.425c-12.656,0-24.182,1.697-32.455,7.354c0,0,0,24.535,0,35.283
					c0,17.677,5.939,24.464,11.525,28.919c6.011,4.737,16.334,9.05,20.93,10.111c4.596-1.062,14.919-5.374,20.929-10.111
					c5.586-4.455,11.525-11.242,11.525-28.919c0-10.748,0-35.283,0-35.283C332.251,393.122,320.726,391.425,308.07,391.425z"/>
			</defs>
			<clipPath id="SVGID_4_">
				<use xlink:href="#SVGID_3_"  overflow="visible"/>
			</clipPath>
			<g clip-path="url(#SVGID_4_)">
				<polygon fill="#6F2B87" points="382.382,443.395 382.17,443.183 383.443,441.839 381.25,439.647 378.776,442.192 
					376.866,440.283 378.069,439.081 377.786,438.799 379.129,437.525 376.938,435.334 374.392,437.809 372.483,435.971 
					373.756,434.697 373.403,434.415 374.745,433.142 372.554,430.95 370.008,433.495 368.17,431.587 369.372,430.385 
					369.089,430.031 370.362,428.758 368.17,426.566 365.696,429.111 363.857,427.273 365.059,426.071 364.705,425.718 
					365.978,424.374 363.786,422.183 361.312,424.728 359.543,422.96 360.745,421.758 360.322,421.334 361.665,420.062 
					359.473,417.869 356.928,420.344 355.159,418.647 356.433,417.374 355.938,416.95 357.281,415.678 355.089,413.485 
					352.543,416.031 350.847,414.264 352.049,413.062 349.928,410.869 276.463,484.404 278.584,486.525 277.312,487.728 
					279.504,489.849 282.049,487.374 282.049,487.374 280.777,488.718 282.898,490.839 281.696,492.041 283.817,494.232 
					286.363,491.688 286.433,491.758 285.09,493.03 287.211,495.151 286.009,496.354 288.13,498.546 290.675,496 290.746,496.071 
					289.403,497.344 291.524,499.465 290.322,500.667 292.444,502.858 294.989,500.313 295.059,500.384 293.786,501.728 
					295.837,503.778 294.635,505.051 296.827,507.172 299.302,504.627 299.372,504.697 298.1,506.041 300.151,508.091 
					298.948,509.364 301.14,511.485 303.615,509.011 303.756,509.081 302.412,510.354 304.534,512.475 303.261,513.677 
					305.453,515.798 307.998,513.323 308.07,513.395 306.726,514.667 308.847,516.788 307.645,517.99 309.766,520.182 
					383.231,446.718 381.18,444.597 				"/>
			</g>
		</g>
		<g>
			<defs>
				<path id="SVGID_5_" d="M308.07,391.425c-12.656,0-24.182,1.697-32.455,7.354c0,0,0,24.535,0,35.283
					c0,17.677,5.939,24.464,11.525,28.919c6.011,4.737,16.334,9.05,20.93,10.111c4.596-1.062,14.919-5.374,20.929-10.111
					c5.586-4.455,11.525-11.242,11.525-28.919c0-10.748,0-35.283,0-35.283C332.251,393.122,320.726,391.425,308.07,391.425z"/>
			</defs>
			<clipPath id="SVGID_6_">
				<use xlink:href="#SVGID_5_"  overflow="visible"/>
			</clipPath>
			<polygon clip-path="url(#SVGID_6_)" fill="#F26722" points="357.776,364.98 357.352,364.627 358.059,363.92 356.928,362.859 
				330.624,389.092 324.473,395.243 319.453,400.334 298.241,421.476 293.151,426.566 286.998,432.718 260.767,459.021 
				261.12,459.374 260.484,460.081 261.615,461.142 260.979,461.778 262.039,462.909 263.383,461.566 263.383,461.566 
				262.676,462.273 263.807,463.334 263.17,463.97 264.302,465.102 265.574,463.829 265.574,463.829 264.939,464.465 
				265.999,465.597 265.363,466.162 266.493,467.293 267.767,466.021 267.767,466.021 267.13,466.657 268.191,467.788 
				267.554,468.425 268.686,469.485 269.958,468.213 269.958,468.213 269.323,468.92 270.383,469.98 269.817,470.616 
				270.877,471.677 272.151,470.404 272.221,470.404 271.514,471.111 272.646,472.172 272.009,472.809 273.07,473.939 
				274.413,472.597 274.413,472.667 273.706,473.304 274.837,474.364 274.2,475 275.332,476.132 276.605,474.859 276.605,474.859 
				275.968,475.495 277.03,476.627 276.393,477.192 277.524,478.323 303.756,452.092 309.907,445.939 314.998,440.849 
				336.21,419.637 341.231,414.546 347.382,408.395 373.685,382.163 372.624,381.102 373.19,380.465 372.978,380.183 
				373.615,379.546 372.483,378.415 371.21,379.688 370.362,378.839 370.998,378.273 370.715,377.991 371.422,377.284 
				370.291,376.223 369.019,377.496 368.17,376.647 368.806,376.011 368.524,375.728 369.159,375.092 368.029,373.96 
				366.756,375.233 365.978,374.456 366.615,373.819 366.261,373.536 366.968,372.829 365.836,371.769 364.564,373.041 
				363.786,372.264 364.352,371.627 364.069,371.273 364.705,370.637 363.574,369.506 362.301,370.779 361.524,370.001 
				362.159,369.435 361.806,369.082 362.513,368.375 361.382,367.314 360.11,368.587 359.331,367.809 359.968,367.173 
				359.615,366.819 360.25,366.183 359.119,365.051 357.847,366.324 357.14,365.617 			"/>
		</g>
	</g>
	<g>
		<g>
			<g>
				<path fill="#FFFFFF" d="M308.493,414.051L308.493,414.051c4.242,0,8.131,1.768,10.96,4.597
					c2.828,2.828,4.524,6.717,4.524,10.959l0,0l0,0c0,4.242-1.768,8.132-4.596,10.96s-6.717,4.525-10.959,4.525l0,0l0,0
					c-4.242,0-8.132-1.768-10.96-4.597c-2.828-2.828-4.525-6.717-4.525-10.959l0,0l0,0c0-4.242,1.768-8.132,4.597-10.96
					C300.363,415.748,304.251,414.051,308.493,414.051L308.493,414.051L308.493,414.051z M308.493,416.667L308.493,416.667
					L308.493,416.667 M321.433,429.606L321.433,429.606 M308.423,442.476L308.423,442.476 M295.554,429.536L295.554,429.536"/>
			</g>
			<g>
				<path fill="#5B553A" d="M308.493,418.152L308.493,418.152c3.111,0,6.01,1.272,8.061,3.394c2.051,2.051,3.323,4.949,3.323,8.061
					l0,0l0,0c0,3.111-1.272,6.011-3.394,8.061c-2.051,2.051-4.95,3.323-8.061,3.323l0,0l0,0c-3.111,0-6.011-1.272-8.061-3.394
					c-2.051-2.051-3.323-4.949-3.323-8.061l0,0l0,0c0-3.111,1.272-6.011,3.394-8.061
					C302.484,419.425,305.382,418.152,308.493,418.152L308.493,418.152L308.493,418.152z M304.11,438.728l3.747-0.707l0.071-3.394
					l-1.979-1.414l-1.98-1.414l-3.252,1.061l-0.071-0.495l0.637,4.313l0.07,0.07C302.13,437.525,303.049,438.162,304.11,438.728
					L304.11,438.728z M309.059,438.021l3.818,0.637c0.99-0.495,1.909-1.132,2.758-1.909c0.07-0.07,0.142-0.142,0.212-0.212
					l0.424-3.677l-3.252-1.061l-1.979,1.414l-1.98,1.414V438.021L309.059,438.021z M310.403,439.506l-1.909-0.354l-1.909,0.354
					c0.637,0.142,1.202,0.212,1.909,0.212l0,0l0,0C309.13,439.718,309.766,439.647,310.403,439.506L310.403,439.506z
					 M314.008,423.172l-1.979,2.758l0.778,2.334l0.777,2.333l3.253,1.061l1.838-3.394c-0.142-1.273-0.565-2.404-1.131-3.465
					L314.008,423.172L314.008,423.172z M310.968,425.152l1.979-2.758l-2.757-2.828c-0.566-0.07-1.132-0.142-1.768-0.142l0,0l0,0
					c-0.637,0-1.273,0.071-1.909,0.142l-2.616,2.758l2.051,2.828h2.475H310.968L310.968,425.152z M302.979,423.102l-3.465,1.697
					c-0.565,1.061-0.99,2.191-1.132,3.465l1.839,3.394l3.253-1.061l-0.071,0.282l0.849-2.615l0.777-2.334L302.979,423.102
					L302.979,423.102z M301.14,422.606l1.697-0.849l1.272-1.343c-1.061,0.495-1.979,1.131-2.758,1.979
					C301.281,422.465,301.211,422.536,301.14,422.606L301.14,422.606z M312.807,420.344l1.414,1.485l1.696,0.777
					c-0.07-0.07-0.141-0.142-0.212-0.282C314.857,421.546,313.867,420.839,312.807,420.344L312.807,420.344z M318.533,430.879
					l-0.919,1.697l-0.212,1.768C317.968,433.354,318.392,432.152,318.533,430.879L318.533,430.879z M299.656,434.485l-0.283-1.909
					l-0.919-1.768C298.595,432.152,299.019,433.354,299.656,434.485L299.656,434.485z M306.655,432.152l1.839,1.343l1.839-1.343
					l1.838-1.344l-0.707-2.191l-0.707-2.192h-2.333h-2.333l-0.708,2.192l-0.707,2.191L306.655,432.152L306.655,432.152z"/>
				<path fill="#FFFFFF" d="M308.493,441.273c-3.111,0-6.081-1.202-8.272-3.465c-2.192-2.191-3.394-5.161-3.394-8.272
					s1.201-6.081,3.464-8.272c2.192-2.192,5.162-3.395,8.272-3.395l0,0c3.111,0,6.081,1.202,8.273,3.465
					c2.191,2.191,3.394,5.161,3.394,8.272s-1.202,6.081-3.465,8.272C314.503,440.071,311.605,441.273,308.493,441.273z
					 M308.493,418.435c-2.97,0-5.728,1.132-7.849,3.253s-3.252,4.879-3.252,7.849s1.131,5.728,3.252,7.849s4.879,3.252,7.849,3.252
					s5.728-1.131,7.849-3.252s3.252-4.879,3.252-7.849s-1.131-5.728-3.252-7.849C314.291,419.637,311.463,418.435,308.493,418.435
					v-0.282V418.435z M308.493,440.001c-0.637,0-1.272-0.071-1.909-0.213l-1.626-0.282l3.535-0.637l3.606,0.637l-1.627,0.282
					C309.766,439.93,309.13,440.001,308.493,440.001z M301.493,436.465L301.493,436.465c0.778,0.778,1.697,1.414,2.616,1.909
					l3.394-0.636l0.071-3.041l-3.677-2.687l-2.899,0.99L301.493,436.465z M309.412,437.738l3.465,0.636
					c0.919-0.495,1.838-1.061,2.546-1.838c0.07-0.071,0.07-0.071,0.141-0.142l0.425-3.323l-2.828-0.919l-3.677,2.687
					L309.412,437.738z M300.151,436.041l-0.778-1.414c-0.637-1.202-1.061-2.475-1.272-3.748l-0.212-1.626l1.768,3.253
					L300.151,436.041z M316.907,435.899l0.424-3.465l1.769-3.252l-0.213,1.626c-0.141,1.272-0.565,2.475-1.202,3.606
					L316.907,435.899z M306.796,431.869l1.697,1.202l3.394-2.475l-1.272-3.96h-4.172l-1.272,3.96L306.796,431.869z M298.736,428.122
					l1.697,3.11l2.899-0.989l1.414-4.384l-1.839-2.475l-3.11,1.556C299.231,425.93,298.877,427.062,298.736,428.122z
					 M313.726,430.313l2.828,0.919l1.626-3.11c-0.142-1.132-0.495-2.192-1.061-3.182l-3.111-1.485l-1.768,2.404L313.726,430.313z
					 M306.231,424.799h4.596l1.768-2.404l-2.475-2.616c-1.061-0.212-2.263-0.212-3.323,0l-2.403,2.475L306.231,424.799z
					 M299.726,423.597l1.132-1.202c0.07-0.07,0.141-0.142,0.212-0.212c0.849-0.849,1.768-1.485,2.898-2.051l1.485-0.707
					l-2.475,2.616L299.726,423.597z M317.191,423.597l-3.183-1.485l-2.615-2.687l1.484,0.707c1.131,0.495,2.121,1.202,2.97,2.121
					c0.07,0.071,0.142,0.142,0.283,0.283L317.191,423.597z"/>
			</g>
			<g>
				<path fill="#5B553A" d="M308.493,441.273c-6.505,0-11.737-5.303-11.737-11.809c0-6.505,5.303-11.737,11.808-11.737
					c6.506,0,11.737,5.304,11.737,11.809C320.231,436.041,314.998,441.344,308.493,441.273z M308.564,418.788
					c-5.938,0-10.817,4.809-10.817,10.748s4.808,10.818,10.747,10.818s10.818-4.809,10.818-10.748
					C319.312,423.597,314.503,418.788,308.564,418.788z"/>
			</g>
		</g>
		<polygon fill="#5B553A" points="299.09,424.374 303.474,422.253 306.372,418.788 304.322,418.93 299.726,422.253 		"/>
		<polygon fill="#5B553A" points="317.826,424.445 313.443,422.253 310.544,418.788 312.594,418.93 317.191,422.253 		"/>
		<polygon fill="#5B553A" points="319.17,428.192 316.766,432.576 316.484,437.102 318.11,435.688 319.877,430.385 		"/>
		<polygon fill="#5B553A" points="303.898,439.223 308.777,438.374 313.16,439.506 311.393,440.566 305.736,440.566 		"/>
		<polygon fill="#5B553A" points="297.817,428.264 300.151,432.576 300.363,437.102 298.807,435.758 297.11,430.385 		"/>
		<polygon fill="#5B553A" points="305.736,425.859 311.18,425.859 312.948,430.879 308.493,434.344 304.11,431.232 		"/>
	</g>
</g>
</svg>
