<?xml version="1.0" encoding="utf-8"?>
<!-- Generator: Adobe Illustrator 16.0.0, SVG Export Plug-In . SVG Version: 6.00 Build 0)  -->
<!DOCTYPE svg PUBLIC "-//W3C//DTD SVG 1.1//EN" "http://www.w3.org/Graphics/SVG/1.1/DTD/svg11.dtd">
<svg version="1.1" id="Layer_1" xmlns="http://www.w3.org/2000/svg" xmlns:xlink="http://www.w3.org/1999/xlink" x="0px" y="0px"
	 width="138.161px" height="138.162px" viewBox="0 0 138.161 138.162" enable-background="new 0 0 138.161 138.162"
	 xml:space="preserve">
<g>
	<circle fill="#FFFFFF" cx="69.081" cy="69.081" r="69.081"/>
	<circle fill="none" stroke="#8E8665" stroke-width="4" stroke-miterlimit="10" cx="69.01" cy="69.081" r="65.05"/>
	<circle fill="none" stroke="#8E8665" stroke-width="4" stroke-miterlimit="10" cx="69.01" cy="69.081" r="48.081"/>
	<g>
		<path fill="none" stroke="#FFFFFF" stroke-width="10" stroke-miterlimit="10" d="M68.94,120.555l-0.637-0.142
			c-5.373-1.272-17.11-6.151-24.04-11.666c-6.788-5.374-13.717-13.646-13.646-34.011l0.071-40.231l1.201-0.849
			c8.556-5.798,20.435-8.485,37.263-8.485c16.828,0.071,28.636,2.757,37.191,8.626l1.202,0.849l-0.07,40.232
			c-0.071,20.364-7,28.565-13.788,33.939c-7,5.516-18.667,10.323-24.111,11.525L68.94,120.555z M36.344,37.545l-0.071,37.191
			c-0.07,17.89,5.516,24.748,11.525,29.556c5.728,4.596,16.051,9.051,21.142,10.465c5.161-1.344,15.484-5.798,21.212-10.323
			c6.01-4.737,11.596-11.596,11.666-29.484l0.071-37.192c-7.425-4.596-18.172-6.858-32.808-6.858
			C54.445,30.899,43.768,33.02,36.344,37.545z"/>
	</g>
	<g>
		<path fill="#8E8665" d="M68.94,120.555l-0.637-0.142c-5.373-1.272-17.11-6.151-24.04-11.666
			c-6.788-5.374-13.717-13.646-13.646-34.011l0.071-40.231l1.201-0.849c8.556-5.798,20.435-8.485,37.263-8.485
			c16.828,0.071,28.636,2.757,37.191,8.626l1.202,0.849l-0.07,40.232c-0.071,20.364-7,28.565-13.788,33.939
			c-7,5.516-18.667,10.323-24.111,11.525L68.94,120.555z M36.344,37.545l-0.071,37.191c-0.07,17.89,5.516,24.748,11.525,29.556
			c5.728,4.596,16.051,9.051,21.142,10.465c5.161-1.344,15.484-5.798,21.212-10.323c6.01-4.737,11.596-11.596,11.666-29.484
			l0.071-37.192c-7.425-4.596-18.172-6.858-32.808-6.858C54.445,30.899,43.768,33.02,36.344,37.545z"/>
	</g>
	<path fill="#FFFFFF" d="M69.152,28c-13.858,0-26.515,1.838-35.636,7.99c0,0-0.071,26.939-0.071,38.747
		c-0.07,19.374,6.435,26.869,12.586,31.818c6.576,5.232,17.889,9.97,22.909,11.102c5.02-1.132,16.403-5.869,22.979-11.03
		c6.151-4.879,12.728-12.374,12.728-31.748c0-11.737,0.07-38.747,0.07-38.747C95.666,29.98,83.01,28.071,69.152,28z"/>
	<g>
		<path fill="#5B553A" d="M16.405,61.445C16.405,61.515,16.334,61.515,16.405,61.445l-6.293-1.202c0,0-0.07,0-0.07-0.071
			l0.424-2.333c0.354-1.909,1.909-2.616,3.818-2.192c1.909,0.354,2.898,1.556,2.545,3.465L16.405,61.445z M15.839,58.969
			c0.212-1.061-0.425-1.838-1.768-2.121c-1.344-0.282-2.404,0.213-2.616,1.273l-0.212,1.272v0.07l4.312,0.849
			c0,0,0.071,0,0.071-0.07L15.839,58.969z"/>
		<path fill="#5B553A" d="M18.597,49.141C18.597,49.141,18.667,49.141,18.597,49.141l0.919,0.283c0,0,0.07,0,0,0.07l-1.485,4.243
			c0,0,0,0.07-0.07,0l-6.01-2.122c0,0-0.071,0,0-0.07l1.484-4.242c0,0,0-0.071,0.07,0l0.849,0.282c0,0,0.071,0,0,0.071l-1.131,3.182
			v0.07l1.484,0.495h0.071l0.989-2.758c0,0,0-0.07,0.071,0l0.849,0.283c0,0,0.07,0,0,0.071l-0.99,2.757v0.071l1.556,0.565h0.07
			L18.597,49.141z"/>
		<path fill="#5B553A" d="M22.556,43.273C22.486,43.343,22.486,43.343,22.556,43.273l-5.515-3.323v-0.071l0.494-0.848h0.071
			l4.596,2.757h0.071l1.626-2.687h0.07l0.778,0.495v0.07L22.556,43.273z"/>
		<path fill="#5B553A" d="M28.072,33.586C28.142,33.515,28.142,33.515,28.072,33.586l0.777,0.565v0.071l-2.828,3.535h-0.07
			L21,33.798v-0.07l2.828-3.536H23.9l0.707,0.566v0.071l-2.121,2.616v0.071l1.202,0.99h0.07l1.839-2.263h0.07l0.707,0.565v0.071
			l-1.839,2.263v0.071l1.273,1.061h0.07L28.072,33.586z"/>
		<path fill="#5B553A" d="M32.526,27.364c0.919,0.919,0.849,2.404-0.07,3.323c-0.92,0.919-2.404,0.849-3.323-0.071l-2.899-3.041
			v-0.07l0.707-0.708h0.071l2.898,3.041c0.495,0.495,1.272,0.495,1.768,0.071c0.495-0.495,0.495-1.273,0.071-1.768l-2.899-3.041
			V25.03l0.707-0.707h0.07L32.526,27.364z"/>
		<path fill="#5B553A" d="M39.314,24.959c0,0-0.071,0-0.142,0l-3.323-1.272h-0.07l-0.142,0.919c0,0.071,0,0.071,0,0.142l1.343,1.838
			v0.071l-0.848,0.565h-0.071l-3.747-5.162v-0.07l0.849-0.566h0.07l1.414,1.98h0.071l0.565-3.536l0,0l1.061-0.778
			c0.07,0,0.07,0,0.07,0.071l-0.565,3.536c0,0,0,0.071,0.07,0.071l4.172,1.626c0.071,0,0.071,0.071,0,0.071L39.314,24.959z"/>
		<path fill="#5B553A" d="M44.193,22.202c-1.627,0.849-2.688,0.283-3.111-0.495v-0.071L42,21.142h0.071
			c0.212,0.424,0.919,0.495,1.626,0.141s0.989-0.99,0.707-1.484c-0.212-0.354-0.707-0.495-1.556-0.142
			c-1.414,0.565-2.475,0.636-3.04-0.495c-0.566-1.061,0.141-2.192,1.131-2.757c1.061-0.566,2.404-0.495,2.97,0.565v0.071
			l-0.919,0.495h-0.071c-0.141-0.354-0.777-0.566-1.484-0.212c-0.565,0.283-0.849,0.919-0.565,1.344
			c0.282,0.495,0.919,0.283,1.556,0.07c0.919-0.354,2.333-0.848,3.11,0.566C46.031,20.364,45.535,21.495,44.193,22.202z"/>
		<path fill="#5B553A" d="M50.839,19.021C50.909,19.091,50.839,19.091,50.839,19.021l-0.99,0.424h-0.07l-1.839-5.021
			c0,0,0-0.071-0.07,0l-1.627,0.566h-0.07l-0.354-0.849v-0.071l4.313-1.626h0.07l0.354,0.848v0.071l-1.626,0.565
			c0,0-0.071,0,0,0.071L50.839,19.021z"/>
		<path fill="#5B553A" d="M59.04,15.768C59.112,15.768,59.112,15.768,59.04,15.768l0.283,0.919v0.071l-4.384,0.99h-0.07
			l-1.414-6.222v-0.071l4.384-0.99h0.07l0.212,0.919v0.071l-3.323,0.778c0,0-0.07,0,0,0.071l0.354,1.556c0,0,0,0.07,0.071,0
			l2.828-0.637h0.07l0.212,0.919v0.071l-2.828,0.636c0,0-0.07,0,0,0.071l0.354,1.626c0,0,0,0.071,0.071,0L59.04,15.768z"/>
		<path fill="#5B553A" d="M67.242,14.566C67.242,14.566,67.172,14.637,67.242,14.566l-0.142,0.212l-0.354,1.061
			c0,0.071-0.07,0.071-0.07,0.071h-1.061c-0.07,0-0.07-0.071-0.07-0.071l1.979-6.363l0.07-0.071h1.626c0,0,0.071,0,0.071,0.071
			l2.121,6.363c0,0,0,0.071-0.071,0.071h-1.061c0,0-0.07,0-0.07-0.071l-0.283-0.99l-0.07-0.283l-0.07-0.071L67.242,14.566z
			 M67.526,13.505C67.526,13.576,67.526,13.576,67.526,13.505h1.979c0,0,0.07,0,0-0.071l-0.99-3.041c0-0.071-0.07-0.071-0.07,0
			L67.526,13.505z"/>
		<path fill="#5B553A" d="M79.404,16.829L79.404,16.829l0.778-5.303c0-0.071-0.07-0.071-0.07,0l-1.98,5.091c0,0,0,0-0.07,0
			l-1.697-0.283h-0.07l-0.354-5.444c0-0.071-0.071-0.071-0.071,0l-0.849,5.232c0,0,0,0.07-0.07,0.07l-0.99-0.141
			c0,0-0.07,0-0.07-0.071l0.99-6.293c0,0,0-0.071,0.07-0.071l1.909,0.283c0,0,0.07,0,0.07,0.071l0.425,5.445
			c0,0.07,0.07,0.07,0.07,0l2.051-5.021l0.07-0.071l1.909,0.283c0,0,0.071,0,0.071,0.071l-0.99,6.293c0,0,0,0.071-0.07,0.071
			L79.404,16.829z"/>
		<path fill="#5B553A" d="M84.919,16.899h-0.07l-0.142,0.142l-0.637,0.919H84l-0.99-0.354c0,0-0.07-0.07,0-0.07l3.96-5.374h0.07
			l1.556,0.495c0,0,0.07,0,0.07,0.071l-0.07,6.717c0,0,0,0.07-0.07,0.07l-0.99-0.354c0,0-0.07,0-0.07-0.071v-0.99v-0.283
			c0,0,0-0.071-0.071-0.071L84.919,16.899z M85.485,15.98L85.485,15.98l1.909,0.707h0.071l0.07-3.182c0-0.071-0.07-0.071-0.07,0
			L85.485,15.98z"/>
		<path fill="#5B553A" d="M92.485,21.283L92.485,21.283l-0.989-0.424v-0.071l2.333-4.808v-0.071l-1.556-0.707v-0.071l0.424-0.849
			h0.071l4.172,1.98v0.071l-0.425,0.849h-0.07l-1.556-0.707h-0.071L92.485,21.283z"/>
		<path fill="#5B553A" d="M100.545,24.889C100.545,24.889,100.545,24.959,100.545,24.889l-0.495,0.848h-0.07l-3.747-2.475v-0.071
			l3.464-5.303h0.071l3.747,2.475v0.071l-0.495,0.778h-0.07l-2.828-1.838h-0.071l-0.849,1.343v0.071l2.476,1.626v0.071l-0.495,0.778
			h-0.071l-2.475-1.626h-0.07l-0.919,1.415v0.071L100.545,24.889z"/>
		<path fill="#5B553A" d="M107.121,28.707c-0.849,0.99-2.334,1.061-3.323,0.212c-0.99-0.849-1.061-2.333-0.212-3.323l2.757-3.182
			h0.071l0.777,0.637v0.071l-2.758,3.182c-0.424,0.495-0.354,1.272,0.142,1.768s1.272,0.424,1.768-0.142l2.758-3.182h0.07
			l0.778,0.636v0.071L107.121,28.707z"/>
		<path fill="#5B553A" d="M112.071,33.303L112.071,33.303l-1.272,2.616c0,0.07-0.071,0-0.071,0l-0.707-0.778v-0.071l1.132-2.404
			v-0.07l-0.919-1.061c0,0,0,0-0.071,0l-1.838,1.555h-0.071l-0.636-0.778v-0.07l4.808-4.172h0.07l1.769,2.05
			c0.707,0.778,0.636,2.051-0.213,2.758C113.485,33.444,112.707,33.515,112.071,33.303z M112,32.101
			c0.354,0.354,0.919,0.354,1.343,0c0.425-0.354,0.425-0.99,0.142-1.343l-0.99-1.131h-0.07l-1.414,1.272v0.071L112,32.101z"/>
		<path fill="#5B553A" d="M116.384,40.303L116.384,40.303l0.636,0.919v0.07c-0.354,0.213-2.121,0.708-3.323-1.061
			c-1.061-1.626-0.495-3.111,1.132-4.171c1.626-1.061,3.394-1.061,4.454,0.566c1.132,1.697,0.142,3.182-0.354,3.465h-0.07
			l-0.565-0.92v-0.07c0.212-0.212,0.777-0.99,0.141-1.98c-0.636-0.919-1.768-0.919-2.97-0.141c-1.202,0.777-1.556,1.768-0.919,2.687
			C115.111,40.657,116.101,40.374,116.384,40.303z"/>
		<path fill="#5B553A" d="M116.384,44.616C116.384,44.616,116.384,44.545,116.384,44.616l5.798-2.757h0.07l0.425,0.919v0.07
			l-4.879,2.263c0,0,0,0,0,0.071l1.343,2.828v0.07l-0.848,0.425h-0.071L116.384,44.616z"/>
		<path fill="#5B553A" d="M122.535,54.232c-1.202,0.425-2.546-0.282-2.97-1.555c-0.425-1.202,0.282-2.546,1.484-2.971l3.96-1.272
			h0.07l0.283,0.99v0.07l-3.96,1.273c-0.636,0.212-0.989,0.919-0.777,1.555c0.212,0.637,0.919,0.99,1.556,0.778l3.959-1.272h0.071
			l0.282,0.989v0.071L122.535,54.232z"/>
		<path fill="#5B553A" d="M121.616,60.596l-0.495-3.041c0,0,0-0.07,0.07-0.07l6.293-1.061c0,0,0.07,0,0.07,0.07l0.495,3.041
			c0.142,0.989-0.565,1.838-1.556,2.05c-0.494,0.071-1.131-0.141-1.343-0.494c0-0.071-0.071,0-0.071,0
			c-0.142,0.494-0.565,0.989-1.131,1.061C122.677,62.364,121.757,61.727,121.616,60.596z M122.535,60.313
			c0.07,0.495,0.565,0.849,1.061,0.778c0.424-0.071,0.777-0.566,0.707-1.061l-0.283-1.839c0-0.07,0,0-0.07,0l-1.626,0.283
			c0,0-0.071,0-0.071,0.07L122.535,60.313z M126.99,59.606l-0.282-1.838c0,0,0,0-0.071,0l-1.556,0.282c0,0-0.07,0-0.07,0.071
			l0.283,1.768c0.07,0.354,0.494,0.777,0.919,0.707C126.636,60.384,127.061,60.101,126.99,59.606z"/>
	</g>
	<g>
		<path fill="#5B553A" d="M26.374,110.09C26.374,110.09,26.374,110.162,26.374,110.09l5.091-2.403h0.07l0.707,0.777v0.07l-6.01,2.97
			h-0.07l-1.132-1.131v-0.07l3.111-5.939c0,0,0.07-0.071,0.07,0l0.707,0.777c0,0,0,0,0,0.071L26.374,110.09z"/>
		<path fill="#5B553A" d="M31.253,114.262h-0.071l-0.141,0.071l-0.92,0.636h-0.07l-0.849-0.636v-0.071l5.516-3.747h0.07l1.272,0.989
			v0.071l-2.333,6.222c0,0-0.071,0.071-0.071,0l-0.848-0.636v-0.071l0.354-0.919l0.07-0.283v-0.07L31.253,114.262z M32.102,113.626
			L32.102,113.626l1.556,1.272h0.07l1.131-2.97c0-0.071,0-0.071-0.07-0.071L32.102,113.626z"/>
		<path fill="#5B553A" d="M44.193,116.737C44.193,116.737,44.193,116.808,44.193,116.737l-3.182,5.586H40.94l-1.202-0.707v-0.07
			l0.212-5.444c0-0.071-0.07-0.071-0.07-0.071l-2.404,4.172h-0.07l-0.919-0.495c0,0,0,0,0-0.07l3.182-5.516h0.07l1.202,0.707v0.071
			l-0.212,5.444c0,0.07,0.07,0.07,0.07,0.07l2.404-4.172h0.07L44.193,116.737z"/>
		<path fill="#5B553A" d="M55.293,120.98C55.293,121.05,55.293,121.05,55.293,120.98l-1.838,6.151c0,0,0,0.07-0.071,0l-1.272-0.425
			l-0.071-0.07l-0.989-5.374c0-0.07-0.071-0.07-0.071,0l-1.414,4.596c0,0,0,0.071-0.07,0l-0.99-0.282c0,0,0,0,0-0.071l1.909-6.08
			c0,0,0-0.071,0.071,0l1.272,0.424l0.07,0.07l0.99,5.374c0,0.071,0.07,0.071,0.07,0l1.414-4.596c0,0,0-0.071,0.071,0L55.293,120.98
			z"/>
		<path fill="#5B553A" d="M61.445,127.767C61.516,127.767,61.516,127.767,61.445,127.767l-0.142,0.99c0,0,0,0.07-0.07,0.07
			l-4.454-0.707c0,0-0.071,0-0.071-0.07l1.061-6.293c0,0,0-0.07,0.071-0.07l4.454,0.707c0,0,0.07,0,0.07,0.07l-0.141,0.919
			c0,0,0,0.071-0.071,0.071l-3.323-0.566c0,0-0.07,0-0.07,0.071l-0.283,1.556c0,0,0,0.07,0.071,0.07l2.898,0.495
			c0,0,0.071,0,0.071,0.07l-0.142,0.92c0,0,0,0.07-0.071,0.07l-2.898-0.495c0,0-0.071,0-0.071,0.071l-0.282,1.626
			c0,0,0,0.07,0.07,0.07L61.445,127.767z"/>
		<path fill="#5B553A" d="M64.839,129.111C64.839,129.111,64.768,129.111,64.839,129.111l0.141-6.435c0,0,0-0.07,0.071-0.07
			l2.333,0.07c1.909,0.071,2.828,1.414,2.828,3.395c-0.07,1.979-1.061,3.11-2.97,3.11L64.839,129.111z M67.242,128.121
			c1.132,0,1.768-0.707,1.768-2.121c0.071-1.414-0.565-2.333-1.696-2.333H66.04c0,0-0.07,0-0.07,0.07l-0.142,4.384
			c0,0,0,0.071,0.071,0.071L67.242,128.121z"/>
		<path fill="#5B553A" d="M77.849,127.555C77.919,127.555,77.919,127.555,77.849,127.555l0.141,0.919c0,0,0,0.071-0.07,0.071
			l-4.454,0.495c0,0-0.071,0-0.071-0.071l-0.707-6.363c0,0,0-0.071,0.071-0.071l4.454-0.494c0,0,0.07,0,0.07,0.07l0.071,0.919
			c0,0,0,0.071-0.071,0.071l-3.394,0.354c0,0-0.07,0-0.07,0.07l0.141,1.556c0,0,0,0.07,0.071,0.07l2.898-0.354
			c0,0,0.071,0,0.071,0.071l0.07,0.919c0,0,0,0.07-0.07,0.07l-2.899,0.354c0,0-0.07,0-0.07,0.071l0.212,1.696
			c0,0,0,0.071,0.07,0.071L77.849,127.555z"/>
		<path fill="#5B553A" d="M84.282,124.444C84.282,124.444,84.282,124.515,84.282,124.444l1.768,2.334v0.07l-1.061,0.283h-0.07
			l-1.626-2.051c0,0,0-0.071-0.071,0l-1.414,0.354c0,0,0,0,0,0.07l0.565,2.334v0.07l-0.989,0.212h-0.071l-1.555-6.222v-0.071
			l2.615-0.636c0.99-0.283,2.122,0.354,2.334,1.484C85.061,123.242,84.778,124.02,84.282,124.444z M83.152,123.949
			c0.424-0.141,0.777-0.636,0.637-1.201c-0.142-0.495-0.708-0.849-1.132-0.707l-1.484,0.354c0,0,0,0,0,0.07l0.424,1.838
			c0,0,0,0.071,0.07,0L83.152,123.949z"/>
		<path fill="#5B553A" d="M89.161,125.858C89.161,125.858,89.091,125.858,89.161,125.858l-2.333-6.01v-0.07l0.919-0.354h0.071
			l1.908,5.02c0,0,0,0,0.071,0l2.898-1.131h0.071l0.354,0.849v0.07L89.161,125.858z"/>
		<path fill="#5B553A" d="M96.515,121.192c0,0-0.07,0.07,0,0.07v0.212l0.212,1.132c0,0.07,0,0.07,0,0.07l-0.919,0.495h-0.07
			l-1.272-6.576v-0.07l1.414-0.777h0.07l4.879,4.596v0.07l-0.919,0.495h-0.071l-0.707-0.707l-0.212-0.212h-0.07L96.515,121.192z
			 M96.233,120.131C96.233,120.131,96.303,120.202,96.233,120.131l1.768-0.92c0,0,0,0,0-0.07l-2.334-2.192
			c-0.07,0-0.07,0-0.07,0.071L96.233,120.131z"/>
		<path fill="#5B553A" d="M103.798,110.232C103.798,110.232,103.868,110.232,103.798,110.232l3.889,5.091v0.071l-1.061,0.848h-0.071
			l-4.949-2.333c-0.07,0-0.07,0-0.07,0.071l2.898,3.889v0.07l-0.848,0.637h-0.071l-3.818-5.091v-0.071l1.061-0.849h0.071
			l4.949,2.334c0.07,0,0.07,0,0.07-0.071l-2.898-3.889v-0.07L103.798,110.232z"/>
		<path fill="#5B553A" d="M110.515,112.99C110.445,112.99,110.445,112.99,110.515,112.99l-4.596-4.455v-0.07l1.626-1.697
			c1.344-1.343,3.041-1.131,4.384,0.283c1.414,1.344,1.556,2.899,0.212,4.313L110.515,112.99z M111.434,110.585
			c0.778-0.777,0.707-1.768-0.282-2.758c-0.99-0.989-2.051-1.131-2.828-0.354l-0.92,0.92v0.07l3.111,3.04h0.071L111.434,110.585z"/>
	</g>
	<g>
		<circle fill="#8E8665" cx="14.779" cy="84.565" r="1.697"/>
		<path fill="#8E8665" d="M15.909,87.748c0.425,0,0.778,0.282,0.919,0.707c0.142,0.495-0.141,1.061-0.636,1.202
			c-0.071,0-0.212,0.07-0.283,0.07c-0.424,0-0.777-0.283-0.919-0.707c-0.142-0.495,0.142-1.061,0.637-1.202
			C15.768,87.748,15.839,87.748,15.909,87.748 M15.909,87.041c-0.142,0-0.282,0-0.495,0.07c-0.919,0.283-1.414,1.202-1.131,2.051
			c0.212,0.707,0.849,1.202,1.626,1.202c0.142,0,0.283,0,0.495-0.071c0.919-0.282,1.414-1.202,1.131-2.05
			C17.323,87.464,16.688,87.041,15.909,87.041L15.909,87.041z"/>
	</g>
	<g>
		<circle fill="#8E8665" cx="123.666" cy="84.849" r="1.697"/>
		<path fill="#8E8665" d="M122.464,87.959c0.071,0,0.213,0,0.283,0.07c0.495,0.142,0.777,0.707,0.637,1.202
			c-0.142,0.425-0.495,0.707-0.92,0.707c-0.07,0-0.212,0-0.282-0.07c-0.283-0.071-0.425-0.212-0.565-0.495
			c-0.142-0.283-0.142-0.495-0.071-0.707C121.687,88.243,122.04,87.959,122.464,87.959 M122.464,87.252
			c-0.707,0-1.414,0.495-1.626,1.202c-0.283,0.919,0.283,1.838,1.132,2.051c0.141,0.07,0.282,0.07,0.494,0.07
			c0.707,0,1.415-0.495,1.627-1.202c0.282-0.919-0.283-1.838-1.132-2.051C122.818,87.323,122.677,87.252,122.464,87.252
			L122.464,87.252z"/>
	</g>
	<g>
		<g>
			<defs>
				<path id="SVGID_1_" d="M69.081,31.959c-12.656,0-24.182,1.697-32.455,7.354c0,0,0,24.535,0,35.283
					c0,17.677,5.939,24.464,11.525,28.919c6.011,4.737,16.334,9.05,20.93,10.111c4.596-1.062,14.919-5.374,20.929-10.111
					c5.586-4.455,11.525-11.242,11.525-28.919c0-10.748,0-35.283,0-35.283C93.263,33.657,81.738,31.959,69.081,31.959z"/>
			</defs>
			<clipPath id="SVGID_2_">
				<use xlink:href="#SVGID_1_"  overflow="visible"/>
			</clipPath>
			<polygon clip-path="url(#SVGID_2_)" fill="#88BB40" points="104.08,7 105.566,5.445 105,4.808 106.626,3.182 103.868,0.424 
				100.687,3.606 98.636,1.556 100.192,0 99.485,-0.636 101.111,-2.262 98.424,-5.02 95.242,-1.838 93.192,-3.889 94.747,-5.374 
				94.04,-6.081 95.666,-7.777 92.909,-10.464 89.798,-7.353 87.819,-9.262 89.303,-10.818 88.596,-11.596 90.222,-13.222 
				87.465,-15.909 84.282,-12.798 82.373,-14.707 83.929,-16.262 83.08,-17.04 84.707,-18.667 82.02,-21.424 78.838,-18.242 
				76.929,-20.151 78.485,-21.636 77.636,-22.484 79.263,-24.111 76.505,-26.868 73.394,-23.757 71.556,-25.525 73.04,-27.081 
				72.192,-28 73.819,-29.626 71.061,-32.313 67.879,-29.202 66.112,-30.969 67.666,-32.525 66.677,-33.444 68.303,-35.07 
				65.616,-37.828 -26.373,54.162 -25.454,55.152 -27.08,56.778 -24.323,59.464 -25.878,61.02 -23.191,63.707 -20.01,60.596 
				-20.01,60.596 -21.635,62.222 -18.949,64.909 -20.433,66.464 -17.747,69.152 -14.635,65.969 -14.565,65.969 -16.191,67.596 
				-13.505,70.353 -15.06,71.838 -12.373,74.525 -9.191,71.414 -9.191,71.414 -10.817,73.041 -8.131,75.727 -9.616,77.283 
				-6.928,79.969 -3.747,76.788 -3.747,76.859 -5.373,78.485 -2.686,81.171 -4.242,82.657 -1.484,85.414 1.627,82.232 1.698,82.232 
				0.072,83.859 2.688,86.545 1.202,88.101 3.89,90.788 7.072,87.676 7.072,87.676 5.445,89.303 8.132,91.99 6.576,93.545 
				9.334,96.232 12.445,93.05 12.516,93.121 10.89,94.748 13.576,97.434 12.021,98.919 14.707,101.606 106.697,9.616 			"/>
		</g>
		<g>
			<defs>
				<path id="SVGID_3_" d="M69.081,31.959c-12.656,0-24.182,1.697-32.455,7.354c0,0,0,24.535,0,35.283
					c0,17.677,5.939,24.464,11.525,28.919c6.011,4.737,16.334,9.05,20.93,10.111c4.596-1.062,14.919-5.374,20.929-10.111
					c5.586-4.455,11.525-11.242,11.525-28.919c0-10.748,0-35.283,0-35.283C93.263,33.657,81.738,31.959,69.081,31.959z"/>
			</defs>
			<clipPath id="SVGID_4_">
				<use xlink:href="#SVGID_3_"  overflow="visible"/>
			</clipPath>
			<g clip-path="url(#SVGID_4_)">
				<polygon fill="#6F2B87" points="143.394,83.929 143.182,83.717 144.454,82.374 142.262,80.182 139.787,82.727 137.878,80.818 
					139.08,79.616 138.798,79.333 140.141,78.06 137.949,75.869 135.404,78.343 133.494,76.505 134.768,75.232 134.414,74.95 
					135.757,73.676 133.566,71.485 131.02,74.03 129.182,72.122 130.384,70.919 130.101,70.566 131.373,69.292 129.182,67.101 
					126.707,69.646 124.868,67.808 126.071,66.606 125.717,66.252 126.99,64.909 124.798,62.717 122.323,65.262 120.555,63.495 
					121.757,62.292 121.333,61.869 122.677,60.596 120.485,58.404 117.94,60.878 116.171,59.182 117.445,57.909 116.949,57.485 
					118.293,56.212 116.101,54.02 113.555,56.566 111.859,54.798 113.061,53.596 110.94,51.404 37.475,124.939 39.596,127.06 
					38.323,128.262 40.516,130.383 43.061,127.909 43.061,127.909 41.788,129.252 43.909,131.374 42.707,132.576 44.828,134.767 
					47.374,132.222 47.445,132.292 46.102,133.565 48.223,135.686 47.021,136.888 49.142,139.081 51.687,136.535 51.758,136.606 
					50.414,137.878 52.535,140 51.333,141.202 53.455,143.393 56,140.848 56.071,140.918 54.798,142.262 56.849,144.313 
					55.647,145.585 57.839,147.707 60.314,145.162 60.384,145.232 59.112,146.576 61.162,148.625 59.96,149.899 62.152,152.02 
					64.626,149.545 64.768,149.616 63.424,150.888 65.546,153.009 64.273,154.211 66.465,156.333 69.01,153.858 69.081,153.929 
					67.738,155.202 69.859,157.323 68.656,158.525 70.778,160.716 144.242,87.252 142.192,85.131 				"/>
			</g>
		</g>
		<g>
			<defs>
				<path id="SVGID_5_" d="M69.081,31.959c-12.656,0-24.182,1.697-32.455,7.354c0,0,0,24.535,0,35.283
					c0,17.677,5.939,24.464,11.525,28.919c6.011,4.737,16.334,9.05,20.93,10.111c4.596-1.062,14.919-5.374,20.929-10.111
					c5.586-4.455,11.525-11.242,11.525-28.919c0-10.748,0-35.283,0-35.283C93.263,33.657,81.738,31.959,69.081,31.959z"/>
			</defs>
			<clipPath id="SVGID_6_">
				<use xlink:href="#SVGID_5_"  overflow="visible"/>
			</clipPath>
			<polygon clip-path="url(#SVGID_6_)" fill="#F26722" points="118.787,5.515 118.364,5.162 119.071,4.455 117.94,3.394 
				91.636,29.626 85.485,35.778 80.465,40.869 59.253,62.01 54.162,67.101 48.01,73.252 21.779,99.555 22.132,99.909 
				21.495,100.616 22.627,101.676 21.99,102.313 23.051,103.444 24.395,102.101 24.395,102.101 23.688,102.808 24.819,103.869 
				24.182,104.504 25.314,105.636 26.586,104.364 26.586,104.364 25.95,105 27.011,106.131 26.374,106.697 27.505,107.828 
				28.779,106.555 28.779,106.555 28.142,107.192 29.202,108.323 28.566,108.959 29.698,110.02 30.97,108.748 30.97,108.748 
				30.334,109.455 31.395,110.515 30.828,111.151 31.889,112.211 33.162,110.939 33.233,110.939 32.526,111.646 33.657,112.707 
				33.021,113.343 34.081,114.474 35.425,113.131 35.425,113.202 34.718,113.838 35.849,114.899 35.212,115.535 36.344,116.667 
				37.616,115.394 37.616,115.394 36.98,116.03 38.041,117.162 37.405,117.727 38.535,118.858 64.768,92.626 70.919,86.474 
				76.01,81.383 97.222,60.171 102.242,55.081 108.394,48.929 134.697,22.697 133.636,21.636 134.201,21 133.99,20.717 
				134.626,20.081 133.494,18.95 132.222,20.222 131.373,19.374 132.01,18.808 131.727,18.525 132.434,17.818 131.303,16.758 
				130.031,18.03 129.182,17.182 129.818,16.545 129.535,16.263 130.171,15.626 129.04,14.495 127.768,15.768 126.99,14.99 
				127.626,14.354 127.273,14.071 127.98,13.364 126.848,12.303 125.575,13.576 124.798,12.798 125.364,12.162 125.08,11.808 
				125.717,11.172 124.586,10.041 123.313,11.313 122.535,10.536 123.171,9.97 122.818,9.616 123.525,8.909 122.394,7.849 
				121.121,9.122 120.343,8.344 120.98,7.708 120.626,7.354 121.262,6.717 120.131,5.586 118.859,6.859 118.152,6.152 			"/>
		</g>
	</g>
	<g>
		<g>
			<g>
				<path fill="#FFFFFF" d="M69.505,54.585L69.505,54.585c4.242,0,8.131,1.768,10.96,4.597c2.828,2.828,4.524,6.717,4.524,10.959
					l0,0l0,0c0,4.242-1.768,8.132-4.596,10.96s-6.717,4.525-10.959,4.525l0,0l0,0c-4.242,0-8.132-1.768-10.96-4.597
					c-2.828-2.828-4.525-6.717-4.525-10.959l0,0l0,0c0-4.242,1.768-8.132,4.597-10.96C61.374,56.283,65.263,54.585,69.505,54.585
					L69.505,54.585L69.505,54.585z M69.505,57.202L69.505,57.202L69.505,57.202 M82.445,70.141L82.445,70.141 M69.435,83.01
					L69.435,83.01 M56.566,70.071L56.566,70.071"/>
			</g>
			<g>
				<path fill="#5B553A" d="M69.505,58.687L69.505,58.687c3.111,0,6.01,1.272,8.061,3.394c2.051,2.051,3.323,4.949,3.323,8.061l0,0
					l0,0c0,3.111-1.272,6.011-3.394,8.061c-2.051,2.051-4.95,3.323-8.061,3.323l0,0l0,0c-3.111,0-6.011-1.272-8.061-3.394
					c-2.051-2.051-3.323-4.949-3.323-8.061l0,0l0,0c0-3.111,1.272-6.011,3.394-8.061C63.495,59.959,66.394,58.687,69.505,58.687
					L69.505,58.687L69.505,58.687z M65.121,79.262l3.747-0.707l0.071-3.394l-1.979-1.414l-1.98-1.414l-3.252,1.061l-0.071-0.495
					l0.637,4.313l0.07,0.07C63.142,78.06,64.061,78.697,65.121,79.262L65.121,79.262z M70.071,78.555l3.818,0.637
					c0.99-0.495,1.909-1.132,2.758-1.909c0.07-0.07,0.142-0.142,0.212-0.212l0.424-3.677l-3.252-1.061l-1.979,1.414l-1.98,1.414
					V78.555L70.071,78.555z M71.414,80.041l-1.909-0.354l-1.909,0.354c0.637,0.142,1.202,0.212,1.909,0.212l0,0l0,0
					C70.142,80.252,70.778,80.182,71.414,80.041L71.414,80.041z M75.02,63.707l-1.979,2.758l0.778,2.334l0.777,2.333l3.253,1.061
					l1.838-3.394c-0.142-1.273-0.565-2.404-1.131-3.465L75.02,63.707L75.02,63.707z M71.98,65.687l1.979-2.758l-2.757-2.828
					c-0.566-0.07-1.132-0.142-1.768-0.142l0,0l0,0c-0.637,0-1.273,0.071-1.909,0.142l-2.616,2.758l2.051,2.828h2.475H71.98
					L71.98,65.687z M63.99,63.636l-3.465,1.697c-0.565,1.061-0.99,2.191-1.132,3.465l1.839,3.394l3.253-1.061l-0.071,0.282
					l0.849-2.615l0.777-2.334L63.99,63.636L63.99,63.636z M62.152,63.141l1.697-0.849l1.272-1.343
					c-1.061,0.495-1.979,1.131-2.758,1.979C62.293,63,62.223,63.071,62.152,63.141L62.152,63.141z M73.819,60.878l1.414,1.485
					l1.696,0.777c-0.07-0.07-0.141-0.142-0.212-0.282C75.868,62.081,74.879,61.374,73.819,60.878L73.819,60.878z M79.545,71.414
					l-0.919,1.697l-0.212,1.768C78.98,73.889,79.404,72.687,79.545,71.414L79.545,71.414z M60.667,75.02l-0.283-1.909l-0.919-1.768
					C59.607,72.687,60.031,73.889,60.667,75.02L60.667,75.02z M67.666,72.687l1.839,1.343l1.839-1.343l1.838-1.344l-0.707-2.191
					l-0.707-2.192h-2.333h-2.333l-0.708,2.192l-0.707,2.191L67.666,72.687L67.666,72.687z"/>
				<path fill="#FFFFFF" d="M69.505,81.808c-3.111,0-6.081-1.202-8.272-3.465c-2.192-2.191-3.394-5.161-3.394-8.272
					s1.201-6.081,3.464-8.272c2.192-2.192,5.162-3.395,8.272-3.395l0,0c3.111,0,6.081,1.202,8.273,3.465
					c2.191,2.191,3.394,5.161,3.394,8.272s-1.202,6.081-3.465,8.272C75.515,80.606,72.616,81.808,69.505,81.808z M69.505,58.969
					c-2.97,0-5.728,1.132-7.849,3.253s-3.252,4.879-3.252,7.849s1.131,5.728,3.252,7.849s4.879,3.252,7.849,3.252
					s5.728-1.131,7.849-3.252s3.252-4.879,3.252-7.849s-1.131-5.728-3.252-7.849C75.303,60.171,72.475,58.969,69.505,58.969v-0.282
					V58.969z M69.505,80.536c-0.637,0-1.272-0.071-1.909-0.213l-1.626-0.282l3.535-0.637l3.606,0.637l-1.627,0.282
					C70.778,80.464,70.142,80.536,69.505,80.536z M62.505,77L62.505,77c0.778,0.778,1.697,1.414,2.616,1.909l3.394-0.636
					l0.071-3.041l-3.677-2.687l-2.899,0.99L62.505,77z M70.424,78.273l3.465,0.636c0.919-0.495,1.838-1.061,2.546-1.838
					c0.07-0.071,0.07-0.071,0.141-0.142L77,73.606l-2.828-0.919l-3.677,2.687L70.424,78.273z M61.162,76.576l-0.778-1.414
					c-0.637-1.202-1.061-2.475-1.272-3.748L58.9,69.788l1.768,3.253L61.162,76.576z M77.919,76.434l0.424-3.465l1.769-3.252
					l-0.213,1.626c-0.141,1.272-0.565,2.475-1.202,3.606L77.919,76.434z M67.808,72.404l1.697,1.202l3.394-2.475l-1.272-3.96h-4.172
					l-1.272,3.96L67.808,72.404z M59.747,68.657l1.697,3.11l2.899-0.989l1.414-4.384l-1.839-2.475l-3.11,1.556
					C60.242,66.464,59.889,67.596,59.747,68.657z M74.738,70.848l2.828,0.919l1.626-3.11c-0.142-1.132-0.495-2.192-1.061-3.182
					L75.02,63.99l-1.768,2.404L74.738,70.848z M67.242,65.333h4.596l1.768-2.404l-2.475-2.616c-1.061-0.212-2.263-0.212-3.323,0
					l-2.403,2.475L67.242,65.333z M60.738,64.131l1.132-1.202c0.07-0.07,0.141-0.142,0.212-0.212
					c0.849-0.849,1.768-1.485,2.898-2.051l1.485-0.707l-2.475,2.616L60.738,64.131z M78.202,64.131l-3.183-1.485l-2.615-2.687
					l1.484,0.707c1.131,0.495,2.121,1.202,2.97,2.121c0.07,0.071,0.142,0.142,0.283,0.283L78.202,64.131z"/>
			</g>
			<g>
				<path fill="#5B553A" d="M69.505,81.808C63,81.808,57.768,76.505,57.768,70c0-6.505,5.303-11.737,11.808-11.737
					c6.506,0,11.737,5.304,11.737,11.809C81.242,76.576,76.01,81.878,69.505,81.808z M69.575,59.323
					c-5.938,0-10.817,4.809-10.817,10.748s4.808,10.818,10.747,10.818s10.818-4.809,10.818-10.748
					C80.323,64.131,75.515,59.323,69.575,59.323z"/>
			</g>
		</g>
		<polygon fill="#5B553A" points="60.102,64.909 64.486,62.788 67.384,59.323 65.333,59.464 60.738,62.788 		"/>
		<polygon fill="#5B553A" points="78.838,64.98 74.454,62.788 71.556,59.323 73.606,59.464 78.202,62.788 		"/>
		<polygon fill="#5B553A" points="80.182,68.727 77.778,73.111 77.495,77.636 79.121,76.222 80.889,70.919 		"/>
		<polygon fill="#5B553A" points="64.909,79.757 69.788,78.909 74.172,80.041 72.405,81.101 66.747,81.101 		"/>
		<polygon fill="#5B553A" points="58.828,68.798 61.162,73.111 61.374,77.636 59.819,76.292 58.121,70.919 		"/>
		<polygon fill="#5B553A" points="66.747,66.394 72.192,66.394 73.959,71.414 69.505,74.878 65.121,71.767 		"/>
	</g>
</g>
</svg>
