<?xml version="1.0" encoding="utf-8"?>
<!-- Generator: Adobe Illustrator 19.0.1, SVG Export Plug-In . SVG Version: 6.00 Build 0)  -->
<svg version="1.1" id="Layer_1" xmlns="http://www.w3.org/2000/svg" xmlns:xlink="http://www.w3.org/1999/xlink" x="0px" y="0px"
	 viewBox="0 0 841.9 595.3" enable-background="new 0 0 841.9 595.3" xml:space="preserve">
<g>
	<g>
		<path fill="none" stroke="#FFFFFF" stroke-width="10" stroke-miterlimit="10" d="M429.3,344.6l-0.5-0.1c-4.2-1-13.3-4.7-18.8-9.1
			c-5.3-4.2-10.7-10.6-10.7-26.5v-31.4l1-0.7c6.7-4.6,15.9-6.7,29-6.7s22.3,2.1,29,6.7l1,0.7v31.4c0,15.9-5.4,22.3-10.7,26.5
			c-5.4,4.3-14.6,8.1-18.8,9.1L429.3,344.6z M403.7,279.9v29c0,13.9,4.3,19.3,9,23c4.5,3.6,12.5,7,16.5,8.1c4-1.1,12-4.5,16.5-8.1
			c4.7-3.7,9-9.1,9-23v-29c-5.8-3.6-14.2-5.3-25.6-5.3S409.5,276.4,403.7,279.9z"/>
	</g>
	<g>
		<path fill="#8E8665" d="M429.3,346l-0.5-0.1c-4.4-1-13.9-4.9-19.5-9.4c-5.5-4.4-11.1-11-11.1-27.5v-32.6l1-0.7
			c6.9-4.7,16.5-6.9,30.2-6.9s23.2,2.2,30.2,6.9l1,0.7V309c0,16.5-5.6,23.2-11.1,27.5c-5.7,4.5-15.1,8.4-19.5,9.4L429.3,346z
			 M402.7,278.8V309c0,14.5,4.5,20.1,9.4,23.9c4.7,3.7,13,7.3,17.2,8.4c4.2-1.1,12.5-4.7,17.2-8.4c4.9-3.9,9.4-9.4,9.4-23.9v-30.1
			c-6-3.7-14.8-5.5-26.6-5.5S408.8,275.1,402.7,278.8z"/>
	</g>
	<path fill="#FFFFFF" d="M429.3,272.4c-10.8,0-20.7,1.5-27.8,6.3c0,0,0,21,0,30.2c0,15.1,5.1,21,9.9,24.8c5.1,4.1,14,7.7,17.9,8.6
		c3.9-0.9,12.8-4.6,17.9-8.6c4.8-3.8,9.9-9.6,9.9-24.8c0-9.2,0-30.2,0-30.2C450,273.9,440.1,272.4,429.3,272.4z"/>
	<g>
		<defs>
			<path id="SVGID_1_" d="M429.3,274.9c-10,0-19.1,1.4-25.7,5.8c0,0,0,19.4,0,27.9c0,14,4.7,19.4,9.1,22.9c4.7,3.7,12.9,7.2,16.5,8
				c3.6-0.8,11.8-4.2,16.5-8c4.4-3.5,9.1-8.9,9.1-22.9c0-8.5,0-27.9,0-27.9C448.4,276.3,439.3,274.9,429.3,274.9z"/>
		</defs>
		<clipPath id="SVGID_2_">
			<use xlink:href="#SVGID_1_"  overflow="visible"/>
		</clipPath>
		<polygon clip-path="url(#SVGID_2_)" fill="#88BB40" points="457,255.2 458.2,254 457.7,253.5 459,252.2 456.8,250 454.3,252.5 
			452.7,250.9 453.9,249.7 453.3,249.2 454.6,247.9 452.5,245.7 450,248.2 448.4,246.6 449.6,245.4 449,244.8 450.3,243.5 
			448.1,241.4 445.6,243.9 444.1,242.3 445.3,241.1 444.7,240.5 446,239.2 443.8,237.1 441.3,239.6 439.8,238 441,236.8 
			440.4,236.2 441.7,234.9 439.5,232.7 437,235.2 435.5,233.7 436.7,232.5 436,231.9 437.3,230.6 435.2,228.4 432.7,230.9 
			431.2,229.5 432.4,228.2 431.7,227.5 433,226.3 430.9,224.1 428.4,226.6 426.9,225.2 428.1,224 427.4,223.2 428.7,221.9 
			426.5,219.8 353.8,292.5 354.5,293.3 353.3,294.6 355.4,296.7 354.2,297.9 356.3,300.1 358.8,297.6 358.8,297.6 357.5,298.9 
			359.7,301 358.5,302.2 360.6,304.3 363.1,301.8 363.1,301.9 361.8,303.1 364,305.3 362.8,306.5 364.9,308.6 367.4,306.1 
			367.4,306.1 366.1,307.4 368.2,309.6 367,310.8 369.2,312.9 371.7,310.4 371.7,310.4 370.4,311.7 372.5,313.8 371.3,315.1 
			373.5,317.2 376,314.7 376,314.7 374.7,316 376.8,318.1 375.6,319.3 377.7,321.5 380.2,319 380.3,319 379,320.3 381.1,322.4 
			379.9,323.6 382,325.8 384.5,323.3 384.6,323.3 383.3,324.6 385.4,326.7 384.2,327.9 386.3,330 459.1,257.3 		"/>
		<g clip-path="url(#SVGID_2_)">
			<polygon fill="#6F2B87" points="488.1,316 487.9,315.9 488.9,314.8 487.2,313.1 485.2,315.1 483.7,313.6 484.6,312.6 
				484.4,312.4 485.5,311.4 483.7,309.6 481.7,311.6 480.2,310.1 481.2,309.2 481,308.9 482,307.9 480.3,306.2 478.3,308.2 
				476.8,306.7 477.8,305.8 477.5,305.5 478.6,304.5 476.8,302.7 474.8,304.7 473.4,303.3 474.4,302.3 474.1,302 475.1,301 
				473.4,299.3 471.4,301.3 470,299.9 470.9,298.9 470.6,298.6 471.6,297.6 469.9,295.8 467.9,297.8 466.5,296.4 467.5,295.5 
				467.2,295.1 468.2,294.1 466.5,292.4 464.5,294.4 463.1,293 464.1,292.1 462.4,290.3 404.3,348.4 405.9,350.1 405,351.1 
				406.7,352.8 408.7,350.8 408.7,350.8 407.7,351.9 409.4,353.5 408.4,354.5 410.1,356.2 412.1,354.2 412.2,354.3 411.1,355.3 
				412.8,357 411.8,357.9 413.5,359.6 415.5,357.6 415.6,357.7 414.5,358.7 416.2,360.4 415.2,361.3 417,363.1 418.9,361.1 
				419,361.1 418,362.1 419.6,363.8 418.7,364.8 420.4,366.5 422.4,364.5 422.4,364.5 421.4,365.6 423.1,367.2 422.1,368.2 
				423.8,369.9 425.8,367.9 425.8,368 424.8,369 426.5,370.6 425.5,371.6 427.2,373.3 429.2,371.3 429.3,371.4 428.2,372.4 
				429.9,374.1 428.9,375 430.6,376.7 488.7,318.6 487.1,317 			"/>
		</g>
		<polygon clip-path="url(#SVGID_2_)" fill="#F26722" points="468.6,254 468.3,253.7 468.8,253.2 467.9,252.3 447.1,273.1 
			442.3,278 438.3,282 421.5,298.7 417.5,302.7 412.6,307.6 391.9,328.4 392.2,328.7 391.7,329.2 392.5,330.1 392,330.6 
			392.9,331.4 393.9,330.4 393.9,330.4 393.4,331 394.3,331.8 393.8,332.3 394.7,333.2 395.7,332.2 395.7,332.2 395.2,332.7 
			396,333.6 395.5,334.1 396.4,334.9 397.4,333.9 397.4,333.9 396.9,334.5 397.8,335.3 397.3,335.8 398.1,336.7 399.2,335.7 
			399.2,335.7 398.6,336.2 399.5,337.1 399,337.6 399.9,338.4 400.9,337.4 400.9,337.4 400.4,337.9 401.3,338.8 400.8,339.3 
			401.6,340.2 402.7,339.2 402.7,339.2 402.1,339.7 403,340.6 402.5,341 403.4,341.9 404.4,340.9 404.4,340.9 403.9,341.4 
			404.7,342.3 404.3,342.8 405.1,343.7 425.9,322.9 430.8,318 434.8,314 451.5,297.3 455.5,293.2 460.4,288.4 481.2,267.6 
			480.3,266.8 480.8,266.3 480.6,266.1 481.1,265.5 480.2,264.7 479.2,265.7 478.6,265 479.1,264.5 478.8,264.3 479.4,263.8 
			478.5,262.9 477.5,263.9 476.8,263.3 477.3,262.8 477.1,262.5 477.6,262 476.7,261.1 475.7,262.2 475.1,261.5 475.6,261 
			475.3,260.8 475.8,260.3 475,259.4 473.9,260.4 473.3,259.8 473.8,259.3 473.6,259 474.1,258.5 473.2,257.6 472.2,258.6 
			471.6,258 472.1,257.5 471.8,257.3 472.3,256.7 471.4,255.9 470.4,256.9 469.8,256.3 470.3,255.8 470,255.5 470.6,255 
			469.7,254.1 468.7,255.1 468.1,254.5 		"/>
	</g>
	<g>
		<g>
			<g>
				<path fill="#FFFFFF" d="M429.4,290.2L429.4,290.2c4.2,0,7.9,1.7,10.6,4.5c2.7,2.7,4.4,6.5,4.4,10.7v0v0c0,4.2-1.7,7.9-4.5,10.6
					c-2.7,2.7-6.5,4.4-10.7,4.4h0h0c-4.2,0-7.9-1.7-10.6-4.5c-2.7-2.7-4.4-6.5-4.4-10.7l0,0v0c0-4.2,1.7-7.9,4.5-10.6
					C421.4,291.9,425.2,290.2,429.4,290.2L429.4,290.2L429.4,290.2z M429.4,292.7L429.4,292.7L429.4,292.7 M441.9,305.3L441.9,305.3
					 M429.3,317.8L429.3,317.8 M416.8,305.3L416.8,305.3"/>
			</g>
			<g>
				<path fill="#5B553A" d="M429.4,293.2L429.4,293.2c3.3,0,6.3,1.4,8.5,3.6c2.2,2.2,3.5,5.2,3.5,8.5v0v0c0,3.3-1.4,6.3-3.6,8.5
					c-2.2,2.2-5.2,3.5-8.5,3.5h0h0c-3.3,0-6.3-1.4-8.5-3.6c-2.2-2.2-3.5-5.2-3.5-8.5v0v0c0-3.3,1.4-6.3,3.6-8.5
					C423,294.6,426,293.2,429.4,293.2L429.4,293.2L429.4,293.2z M424.7,314.9l4-0.7l0-3.6l-2.1-1.5l-2.1-1.5l-3.5,1.1l-0.1-0.6
					l0.7,4.6c0,0,0.1,0.1,0.1,0.1C422.6,313.7,423.6,314.4,424.7,314.9L424.7,314.9z M430,314.2l4,0.7c1.1-0.5,2-1.2,2.9-2.1
					c0.1-0.1,0.2-0.2,0.2-0.3l0.5-3.9l-3.4-1.1l-2.1,1.5l-2.1,1.5L430,314.2L430,314.2z M431.3,315.8l-2-0.4l-2,0.4
					c0.6,0.1,1.3,0.2,2,0.2h0l0,0C430,316,430.7,316,431.3,315.8L431.3,315.8z M435.2,298.5l-2.1,2.9l0.8,2.4l0.8,2.5l3.4,1.1
					l1.9-3.6c-0.2-1.3-0.6-2.5-1.2-3.7L435.2,298.5L435.2,298.5z M432,300.6l2.1-2.9l-2.9-3c-0.6-0.1-1.2-0.2-1.9-0.2l0,0h0
					c-0.7,0-1.3,0.1-2,0.2l-2.8,2.9l2.2,3l2.6,0L432,300.6L432,300.6z M423.5,298.4l-3.7,1.8c-0.6,1.1-1,2.3-1.2,3.6l1.9,3.6
					l3.5-1.2l-0.1,0.3l0.9-2.8l0.8-2.5L423.5,298.4L423.5,298.4z M421.5,297.9l1.8-0.9l1.4-1.4c-1.1,0.5-2.1,1.2-2.9,2.1
					C421.7,297.8,421.6,297.9,421.5,297.9L421.5,297.9z M433.9,295.6l1.5,1.6l1.8,0.8c-0.1-0.1-0.2-0.2-0.3-0.3
					C436,296.9,435,296.1,433.9,295.6L433.9,295.6z M440,306.7l-1,1.8l-0.2,1.9C439.4,309.3,439.8,308,440,306.7L440,306.7z
					 M420,310.5l-0.3-2l-1-1.8C418.9,308,419.3,309.3,420,310.5L420,310.5z M427.4,308l2,1.4l2-1.4l2-1.4l-0.7-2.3l-0.7-2.3l-2.4,0
					l-2.4,0l-0.8,2.3l-0.8,2.3L427.4,308L427.4,308z"/>
				<path fill="#FFFFFF" d="M429.3,317.7c-3.3,0-6.4-1.3-8.7-3.7c-2.3-2.3-3.6-5.5-3.6-8.8c0-3.3,1.3-6.4,3.7-8.7
					c2.3-2.3,5.5-3.6,8.8-3.6h0c3.3,0,6.4,1.3,8.7,3.7c2.3,2.3,3.6,5.5,3.6,8.8c0,3.3-1.3,6.4-3.7,8.7
					C435.7,316.4,432.6,317.7,429.3,317.7z M429.4,293.6c-3.1,0-6.1,1.2-8.3,3.4c-2.2,2.2-3.5,5.2-3.5,8.3c0,3.1,1.2,6.1,3.4,8.3
					c2.2,2.2,5.2,3.5,8.3,3.5c3.1,0,6.1-1.2,8.3-3.4c2.2-2.2,3.5-5.2,3.5-8.3c0-3.1-1.2-6.1-3.4-8.3
					C435.4,294.8,432.5,293.6,429.4,293.6l0-0.3L429.4,293.6z M429.3,316.3c-0.7,0-1.4-0.1-2-0.2l-1.7-0.3l3.7-0.7l3.8,0.7l-1.7,0.3
					C430.7,316.3,430,316.3,429.3,316.3z M421.9,312.6L421.9,312.6c0.8,0.8,1.8,1.5,2.8,2l3.6-0.6l0-3.2l-3.9-2.8l-3,1L421.9,312.6z
					 M430.3,314l3.7,0.6c1-0.5,1.9-1.2,2.7-1.9c0.1-0.1,0.1-0.1,0.2-0.2l0.4-3.5l-3-1l-3.9,2.8L430.3,314z M420.5,312.2l-0.8-1.5
					c-0.7-1.2-1.1-2.6-1.3-4l-0.2-1.7l1.8,3.4L420.5,312.2z M438.2,312l0.4-3.6l1.8-3.4l-0.2,1.7c-0.2,1.4-0.6,2.6-1.3,3.8
					L438.2,312z M427.6,307.8l1.8,1.3l3.6-2.6l-1.4-4.2l-4.4,0l-1.4,4.2L427.6,307.8z M419,303.8l1.8,3.3l3-1l1.5-4.6l-1.9-2.6
					l-3.3,1.6C419.6,301.5,419.2,302.6,419,303.8z M434.9,306.1l3,1l1.8-3.3c-0.2-1.2-0.5-2.3-1.1-3.4l-3.3-1.5l-1.9,2.6
					L434.9,306.1z M426.9,300.3l4.9,0l1.9-2.5l-2.6-2.7c-1.2-0.2-2.4-0.2-3.5,0l-2.5,2.6L426.9,300.3z M420.1,299l1.2-1.3
					c0.1-0.1,0.2-0.2,0.2-0.2c0.9-0.9,1.9-1.6,3-2.1l1.6-0.8l-2.6,2.8L420.1,299z M438.5,299l-3.3-1.6l-2.8-2.9l1.6,0.7
					c1.2,0.6,2.2,1.3,3.2,2.2c0.1,0.1,0.2,0.2,0.3,0.3L438.5,299z"/>
			</g>
			<g>
				<path fill="#5B553A" d="M429.3,317.7c-6.8,0-12.4-5.6-12.4-12.4c0-6.8,5.6-12.4,12.4-12.4c6.8,0,12.4,5.6,12.4,12.4
					C441.8,312.2,436.2,317.7,429.3,317.7z M429.4,293.9c-6.3,0-11.4,5.1-11.4,11.4c0,6.3,5.1,11.4,11.4,11.4
					c6.3,0,11.4-5.1,11.4-11.4C440.8,299,435.7,293.9,429.4,293.9z"/>
			</g>
		</g>
		<polygon fill="#5B553A" points="419.4,299.8 424.1,297.6 427.1,293.9 424.9,294.1 420.1,297.6 		"/>
		<polygon fill="#5B553A" points="439.2,299.9 434.5,297.6 431.5,293.9 433.7,294.1 438.5,297.6 		"/>
		<polygon fill="#5B553A" points="440.6,303.9 438.1,308.5 437.8,313.2 439.5,311.8 441.3,306.2 		"/>
		<polygon fill="#5B553A" points="424.5,315.5 429.6,314.6 434.2,315.8 432.4,316.9 426.4,316.9 		"/>
		<polygon fill="#5B553A" points="418,303.9 420.5,308.5 420.8,313.3 419.1,311.8 417.3,306.2 		"/>
		<polygon fill="#5B553A" points="426.4,301.4 432.2,301.4 434.1,306.7 429.4,310.4 424.7,307.1 		"/>
	</g>
</g>
</svg>
