<?xml version="1.0" encoding="utf-8"?>
<!-- Generator: Adobe Illustrator 19.0.1, SVG Export Plug-In . SVG Version: 6.00 Build 0)  -->
<svg version="1.1" id="Layer_1" xmlns="http://www.w3.org/2000/svg" xmlns:xlink="http://www.w3.org/1999/xlink" x="0px" y="0px"
	 viewBox="0 0 841.9 595.3" enable-background="new 0 0 841.9 595.3" xml:space="preserve">
<g>
	<g>
		<path fill="none" stroke="#FFFFFF" stroke-width="10" stroke-miterlimit="10" d="M435.5,381.2l-0.9-0.2c-7.6-1.8-24.2-8.7-34-16.5
			c-9.6-7.6-19.4-19.3-19.3-48.1l0.1-56.9l1.7-1.2c12.1-8.2,28.9-12,52.7-12c23.8,0.1,40.5,3.9,52.6,12.2l1.7,1.2l-0.1,56.9
			c-0.1,28.8-9.9,40.4-19.5,48c-9.9,7.8-26.4,14.6-34.1,16.3L435.5,381.2z M389.4,263.8l-0.1,52.6c-0.1,25.3,7.8,35,16.3,41.8
			c8.1,6.5,22.7,12.8,29.9,14.8c7.3-1.9,21.9-8.2,30-14.6c8.5-6.7,16.4-16.4,16.5-41.7l0.1-52.6c-10.5-6.5-25.7-9.7-46.4-9.7
			S400,257.4,389.4,263.8z"/>
	</g>
	<g>
		<path fill="#8E8665" d="M435.5,381.2l-0.9-0.2c-7.6-1.8-24.2-8.7-34-16.5c-9.6-7.6-19.4-19.3-19.3-48.1l0.1-56.9l1.7-1.2
			c12.1-8.2,28.9-12,52.7-12c23.8,0.1,40.5,3.9,52.6,12.2l1.7,1.2l-0.1,56.9c-0.1,28.8-9.9,40.4-19.5,48
			c-9.9,7.8-26.4,14.6-34.1,16.3L435.5,381.2z M389.4,263.8l-0.1,52.6c-0.1,25.3,7.8,35,16.3,41.8c8.1,6.5,22.7,12.8,29.9,14.8
			c7.3-1.9,21.9-8.2,30-14.6c8.5-6.7,16.4-16.4,16.5-41.7l0.1-52.6c-10.5-6.5-25.7-9.7-46.4-9.7S400,257.4,389.4,263.8z"/>
	</g>
	<path fill="#FFFFFF" d="M435.9,250.3c-19.6,0-37.5,2.6-50.4,11.3c0,0-0.1,38.1-0.1,54.8c-0.1,27.4,9.1,38,17.8,45
		c9.3,7.4,25.3,14.1,32.4,15.7c7.1-1.6,23.2-8.3,32.5-15.6c8.7-6.9,18-17.5,18-44.9c0-16.6,0.1-54.8,0.1-54.8
		C473.4,253.1,455.5,250.4,435.9,250.3z"/>
	<g>
		<defs>
			<path id="SVGID_1_" d="M435.8,255.9c-17.9,0-34.2,2.4-45.9,10.4c0,0,0,34.7,0,49.9c0,25,8.4,34.6,16.3,40.9
				c8.5,6.7,23.1,12.8,29.6,14.3c6.5-1.5,21.1-7.6,29.6-14.3c7.9-6.3,16.3-15.9,16.3-40.9c0-15.2,0-49.9,0-49.9
				C470,258.3,453.7,255.9,435.8,255.9z"/>
		</defs>
		<clipPath id="SVGID_2_">
			<use xlink:href="#SVGID_1_"  overflow="visible"/>
		</clipPath>
		<polygon clip-path="url(#SVGID_2_)" fill="#88BB40" points="485.3,220.6 487.4,218.4 486.5,217.5 488.8,215.2 485,211.3 
			480.5,215.8 477.6,212.9 479.8,210.7 478.8,209.8 481.1,207.5 477.2,203.6 472.8,208.1 469.9,205.2 472.1,203.1 471.1,202.1 
			473.4,199.7 469.5,195.9 465,200.3 462.3,197.6 464.4,195.4 463.3,194.3 465.6,192 461.8,188.2 457.3,192.6 454.6,189.9 
			456.7,187.7 455.6,186.6 457.9,184.3 454,180.4 449.6,184.9 446.9,182.2 449.1,180.1 447.9,178.9 450.2,176.6 446.3,172.7 
			441.8,177.1 439.3,174.6 441.4,172.4 440.1,171.1 442.4,168.8 438.6,165 434.1,169.4 431.6,166.9 433.7,164.7 432.4,163.4 
			434.7,161.1 430.8,157.2 300.7,287.3 302.1,288.7 299.8,291 303.6,294.8 301.5,297 305.3,300.8 309.8,296.4 309.8,296.4 
			307.5,298.7 311.3,302.5 309.1,304.7 313,308.5 317.4,304 317.4,304 315.1,306.3 318.9,310.2 316.8,312.3 320.6,316.1 
			325.1,311.7 325.1,311.7 322.8,314 326.6,317.8 324.4,320 328.3,323.8 332.7,319.3 332.8,319.4 330.5,321.7 334.3,325.5 
			332.1,327.6 335.9,331.5 340.4,327 340.4,327 338.1,329.3 341.9,333.1 339.8,335.3 343.6,339.1 348.1,334.7 348.1,334.7 
			345.8,337 349.6,340.8 347.4,343 351.3,346.8 355.7,342.3 355.8,342.4 353.5,344.7 357.2,348.5 355.1,350.6 358.9,354.4 
			489,224.3 		"/>
		<g clip-path="url(#SVGID_2_)">
			<polygon fill="#6F2B87" points="540.9,329.4 540.6,329.1 542.4,327.2 539.3,324.1 535.8,327.7 533,325 534.8,323.3 534.4,322.9 
				536.2,321.1 533.2,318 529.6,321.5 526.9,318.9 528.6,317.1 528.2,316.7 530.1,314.9 527,311.8 523.4,315.4 520.8,312.7 
				522.5,311 522.1,310.5 523.9,308.7 520.8,305.6 517.2,309.2 514.7,306.6 516.4,304.9 515.9,304.4 517.7,302.5 514.6,299.4 
				511.1,303 508.5,300.5 510.3,298.8 509.7,298.2 511.5,296.4 508.5,293.3 504.9,296.8 502.4,294.4 504.1,292.6 503.5,292 
				505.4,290.2 502.3,287.1 498.7,290.7 496.3,288.2 498,286.5 495,283.4 391,387.4 394,390.4 392.3,392.1 395.4,395.1 398.9,391.6 
				399,391.6 397.2,393.5 400.2,396.5 398.4,398.2 401.5,401.3 405.1,397.7 405.1,397.8 403.3,399.6 406.3,402.6 404.6,404.3 
				407.6,407.4 411.2,403.8 411.3,403.9 409.4,405.7 412.4,408.7 410.7,410.4 413.7,413.5 417.3,409.9 417.4,410 415.5,411.9 
				418.5,414.8 416.8,416.6 419.8,419.6 423.4,416 423.5,416.1 421.7,418 424.6,420.9 422.9,422.7 426,425.7 429.5,422.2 
				429.6,422.3 427.8,424.1 430.7,427.1 429,428.8 432.1,431.8 435.6,428.3 435.8,428.4 433.9,430.2 436.9,433.2 435.1,434.9 
				438.2,438 542.1,334.1 539.2,331.1 			"/>
		</g>
		<polygon clip-path="url(#SVGID_2_)" fill="#F26722" points="506,218.5 505.5,218 506.4,217 504.9,215.5 467.7,252.6 459,261.3 
			451.9,268.5 421.9,298.4 414.7,305.6 406,314.3 368.9,351.5 369.4,352 368.5,353 370,354.5 369.2,355.4 370.7,357 372.5,355.1 
			372.5,355.1 371.6,356.1 373.2,357.6 372.3,358.5 373.8,360.1 375.7,358.3 375.7,358.3 374.7,359.2 376.3,360.8 375.4,361.6 
			377,363.2 378.8,361.4 378.8,361.4 377.9,362.3 379.4,363.9 378.5,364.8 380.1,366.3 381.9,364.5 381.9,364.5 381,365.5 
			382.5,367 381.6,367.9 383.2,369.4 385,367.6 385,367.6 384.1,368.6 385.6,370.1 384.8,371 386.3,372.6 388.1,370.7 388.2,370.8 
			387.2,371.7 388.8,373.2 387.9,374.1 389.4,375.7 391.3,373.9 391.3,373.9 390.4,374.8 391.9,376.4 391,377.2 392.6,378.8 
			429.7,341.7 438.4,333 445.6,325.8 475.6,295.8 482.7,288.6 491.4,279.9 528.6,242.8 527,241.3 527.9,240.4 527.6,240 
			528.5,239.1 526.9,237.5 525.1,239.3 523.9,238.1 524.8,237.3 524.4,236.9 525.3,235.9 523.8,234.4 521.9,236.2 520.8,235 
			521.7,234.1 521.3,233.7 522.2,232.8 520.6,231.2 518.8,233 517.7,231.9 518.5,231 518.1,230.6 519,229.6 517.5,228.1 
			515.6,229.9 514.5,228.8 515.4,227.9 515,227.4 515.9,226.5 514.3,224.9 512.5,226.7 511.4,225.6 512.3,224.8 511.8,224.3 
			512.7,223.3 511.2,221.8 509.3,223.6 508.3,222.5 509.2,221.6 508.7,221.1 509.6,220.2 508,218.6 506.2,220.4 505.2,219.4 		"/>
	</g>
	<g>
		<g>
			<g>
				<path fill="#FFFFFF" d="M436.4,287.9L436.4,287.9c6,0,11.5,2.5,15.5,6.5c4,4,6.4,9.5,6.4,15.5v0v0c0,6-2.5,11.5-6.5,15.5
					c-4,4-9.5,6.4-15.5,6.4h0h0c-6,0-11.5-2.5-15.5-6.5c-4-4-6.4-9.5-6.4-15.5v0v0c0-6,2.5-11.5,6.5-15.5
					C424.9,290.3,430.4,287.9,436.4,287.9L436.4,287.9L436.4,287.9z M436.4,291.6L436.4,291.6L436.4,291.6 M454.6,309.9L454.6,309.9
					 M436.3,328.1L436.3,328.1 M418.1,309.8L418.1,309.8"/>
			</g>
			<g>
				<path fill="#5B553A" d="M436.4,293.7L436.4,293.7c4.4,0,8.5,1.8,11.4,4.8c2.9,2.9,4.7,7,4.7,11.4l0,0v0c0,4.4-1.8,8.5-4.8,11.4
					c-2.9,2.9-7,4.7-11.4,4.7h0h0c-4.4,0-8.5-1.8-11.4-4.8c-2.9-2.9-4.7-7-4.7-11.4v0v0c0-4.4,1.8-8.5,4.8-11.4
					C427.9,295.5,432,293.7,436.4,293.7L436.4,293.7L436.4,293.7z M430.1,322.8l5.3-1l0.1-4.8l-2.8-2l-2.8-2l-4.6,1.5l-0.1-0.7
					l0.9,6.1c0,0,0.1,0.1,0.1,0.1C427.3,321.1,428.7,322,430.1,322.8L430.1,322.8z M437.2,321.8l5.4,0.9c1.4-0.7,2.7-1.6,3.9-2.7
					c0.1-0.1,0.2-0.2,0.3-0.3l0.6-5.2l-4.6-1.5l-2.8,2l-2.8,2L437.2,321.8L437.2,321.8z M439.1,323.9l-2.7-0.5l-2.7,0.5
					c0.9,0.2,1.7,0.3,2.7,0.3l0,0h0C437.3,324.2,438.2,324.1,439.1,323.9L439.1,323.9z M444.2,300.8l-2.8,3.9l1.1,3.3l1.1,3.3
					l4.6,1.5l2.6-4.8c-0.2-1.8-0.8-3.4-1.6-4.9L444.2,300.8L444.2,300.8z M439.9,303.6l2.8-3.9l-3.9-4c-0.8-0.1-1.6-0.2-2.5-0.2h0h0
					c-0.9,0-1.8,0.1-2.7,0.2l-3.7,3.9l2.9,4l3.5,0L439.9,303.6L439.9,303.6z M428.6,300.7l-4.9,2.4c-0.8,1.5-1.4,3.1-1.6,4.9
					l2.6,4.8l4.6-1.5l-0.1,0.4l1.2-3.7l1.1-3.3L428.6,300.7L428.6,300.7z M425.9,300l2.4-1.2l1.8-1.9c-1.5,0.7-2.8,1.6-3.9,2.8
					C426.1,299.8,426,299.9,425.9,300L425.9,300z M442.4,296.8l2,2.1l2.4,1.1c-0.1-0.1-0.2-0.2-0.3-0.4
					C445.4,298.5,444,297.5,442.4,296.8L442.4,296.8z M450.6,311.7l-1.3,2.4l-0.3,2.5C449.8,315.2,450.4,313.5,450.6,311.7
					L450.6,311.7z M423.8,316.8l-0.4-2.7l-1.3-2.5C422.4,313.5,423,315.2,423.8,316.8L423.8,316.8z M433.8,313.5l2.6,1.9l2.6-1.9
					l2.6-1.9l-1-3.1l-1-3.1l-3.3,0l-3.3,0l-1,3.1l-1,3.1L433.8,313.5L433.8,313.5z"/>
				<path fill="#FFFFFF" d="M436.3,326.4c-4.4,0-8.6-1.7-11.7-4.9c-3.1-3.1-4.8-7.3-4.8-11.7c0-4.4,1.7-8.6,4.9-11.7
					c3.1-3.1,7.3-4.8,11.7-4.8h0c4.4,0,8.6,1.7,11.7,4.9c3.1,3.1,4.8,7.3,4.8,11.7c0,4.4-1.7,8.6-4.9,11.7
					C444.9,324.7,440.7,326.4,436.3,326.4z M436.4,294.1c-4.2,0-8.1,1.6-11.1,4.6c-3,3-4.6,6.9-4.6,11.1c0,4.2,1.6,8.1,4.6,11.1
					c3,3,6.9,4.6,11.1,4.6c4.2,0,8.1-1.6,11.1-4.6c3-3,4.6-6.9,4.6-11.1c0-4.2-1.6-8.1-4.6-11.1
					C444.5,295.8,440.6,294.1,436.4,294.1l0-0.4L436.4,294.1z M436.3,324.6c-0.9,0-1.8-0.1-2.7-0.3l-2.3-0.4l5-0.9l5.1,0.9l-2.3,0.4
					C438.2,324.5,437.3,324.6,436.3,324.6z M426.5,319.6L426.5,319.6c1.1,1.1,2.4,2,3.7,2.7l4.8-0.9l0.1-4.3l-5.2-3.8l-4.1,1.4
					L426.5,319.6z M437.7,321.4l4.9,0.9c1.3-0.7,2.6-1.5,3.6-2.6c0.1-0.1,0.1-0.1,0.2-0.2l0.6-4.7l-4-1.3l-5.2,3.8L437.7,321.4z
					 M424.6,319l-1.1-2c-0.9-1.7-1.5-3.5-1.8-5.3l-0.3-2.3l2.5,4.6L424.6,319z M448.3,318.8l0.6-4.9l2.5-4.6l-0.3,2.3
					c-0.2,1.8-0.8,3.5-1.7,5.1L448.3,318.8z M434,313.1l2.4,1.7l4.8-3.5l-1.8-5.6l-5.9,0l-1.8,5.6L434,313.1z M422.6,307.8l2.4,4.4
					l4.1-1.4l2-6.2l-2.6-3.5l-4.4,2.2C423.3,304.7,422.8,306.3,422.6,307.8z M443.8,310.9l4,1.3l2.3-4.4c-0.2-1.6-0.7-3.1-1.5-4.5
					l-4.4-2.1l-2.5,3.4L443.8,310.9z M433.2,303.1l6.5,0l2.5-3.4l-3.5-3.7c-1.5-0.3-3.2-0.3-4.7,0l-3.4,3.5L433.2,303.1z M424,301.4
					l1.6-1.7c0.1-0.1,0.2-0.2,0.3-0.3c1.2-1.2,2.5-2.1,4.1-2.9l2.1-1l-3.5,3.7L424,301.4z M448.7,301.4l-4.5-2.1l-3.7-3.8l2.1,1
					c1.6,0.7,3,1.7,4.2,3c0.1,0.1,0.2,0.2,0.4,0.4L448.7,301.4z"/>
			</g>
			<g>
				<path fill="#5B553A" d="M436.4,326.4c-9.2,0-16.6-7.5-16.6-16.7c0-9.2,7.5-16.6,16.7-16.6c9.2,0,16.6,7.5,16.6,16.7
					C453,319,445.5,326.5,436.4,326.4z M436.5,294.6c-8.4,0-15.3,6.8-15.3,15.2c0,8.4,6.8,15.3,15.2,15.3c8.4,0,15.3-6.8,15.3-15.2
					C451.7,301.4,444.9,294.6,436.5,294.6z"/>
			</g>
		</g>
		<polygon fill="#5B553A" points="423,302.5 429.3,299.5 433.4,294.6 430.5,294.8 424,299.5 		"/>
		<polygon fill="#5B553A" points="449.6,302.6 443.3,299.5 439.3,294.6 442.2,294.8 448.6,299.5 		"/>
		<polygon fill="#5B553A" points="451.5,307.9 448.1,314.1 447.7,320.5 450,318.5 452.5,311 		"/>
		<polygon fill="#5B553A" points="429.9,323.5 436.8,322.3 443,323.9 440.4,325.4 432.5,325.4 		"/>
		<polygon fill="#5B553A" points="421.2,308 424.5,314.1 424.9,320.5 422.7,318.6 420.2,311 		"/>
		<polygon fill="#5B553A" points="432.4,304.6 440.2,304.6 442.7,311.7 436.4,316.6 430.1,312.2 		"/>
	</g>
</g>
</svg>
