<?xml version="1.0" encoding="UTF-8" standalone="no"?>
<svg width="160px" height="161px" viewBox="0 0 160 161" version="1.1" xmlns="http://www.w3.org/2000/svg" xmlns:xlink="http://www.w3.org/1999/xlink" xmlns:sketch="http://www.bohemiancoding.com/sketch/ns">
    <!-- Generator: Sketch 3.3.3 (12072) - http://www.bohemiancoding.com/sketch -->
    <title>Imported Layers</title>
    <desc>Created with Sketch.</desc>
    <defs>
        <path id="path-1" d="M38.1289796,0.704477157 C23.5363265,0.704477157 10.2146939,2.68959898 0.671836735,9.20233503 L0.671836735,49.9672081 C0.671836735,70.3692589 7.52163265,78.2631624 13.9942857,83.3963655 C20.8955102,88.868731 32.8636735,93.8507411 38.1289796,95.0586497 C43.395102,93.8507411 55.362449,88.868731 62.2636735,83.3963655 C68.7363265,78.2631624 75.5861224,70.3692589 75.5861224,49.9672081 L75.5861224,9.20233503 C66.0440816,2.68959898 52.7216327,0.704477157 38.1289796,0.704477157"></path>
    </defs>
    <g id="Page-1" stroke="none" stroke-width="1" fill="none" fill-rule="evenodd" sketch:type="MSPage">
        <g id="Weekopdracht-2" sketch:type="MSArtboardGroup" transform="translate(-620.000000, -12.000000)">
            <g id="Top-bar" sketch:type="MSLayerGroup" transform="translate(100.000000, 12.000000)">
                <g id="Imported-Layers" transform="translate(520.000000, 0.000000)">
                    <path d="M159.48,80.6144162 C159.372245,124.692457 123.594286,160.337203 79.5673469,160.229325 C35.5404082,160.122264 -0.0636734694,124.303442 0.0432653061,80.2262183 C0.151020408,36.1489949 35.9289796,0.504248731 79.9559184,0.611309645 C123.982857,0.718370558 159.586939,36.5371929 159.48,80.6144162" id="Fill-1" fill="#FFFFFF" sketch:type="MSShapeGroup"></path>
                    <path d="M154.795918,80.6037919 C154.694694,122.122995 120.992653,155.699259 79.5208163,155.598736 C38.0481633,155.497396 4.51020408,121.756863 4.61142857,80.2368426 C4.71183673,38.7176396 38.4138776,5.14137563 79.8865306,5.24271574 C121.358367,5.34323858 154.896327,39.0837716 154.795918,80.6037919 L154.795918,80.6037919 Z M135.204082,80.5555736 C135.12898,111.242827 110.220408,136.058893 79.5681633,135.984523 C48.9159184,135.909335 24.1281633,110.972315 24.2032653,80.2850609 C24.277551,49.5978071 49.1861224,24.7817411 79.8383673,24.8561117 C110.490612,24.9312995 135.278367,49.8683198 135.204082,80.5555736 L135.204082,80.5555736 Z" id="Stroke-2" stroke="#85805F" stroke-width="4" sketch:type="MSShapeGroup"></path>
                    <path d="M79.5583673,139.894289 L78.8293878,139.725117 C72.5869388,138.276934 59.1085714,132.637848 51.0677551,126.229721 C43.2383673,119.989949 35.242449,110.441096 35.2995918,86.9277411 L35.4130612,40.4469594 L36.8408163,39.4776904 C46.7502041,32.749198 60.4097959,29.6370761 79.8269388,29.6844772 C99.2440816,29.7318782 112.888163,32.910198 122.764898,39.6877259 L124.187755,40.663533 L124.075102,87.1443147 C124.017959,110.65767 115.97551,120.167294 108.115918,126.369472 C100.044082,132.737553 86.5387755,138.311259 80.2881633,139.728386 L79.5583673,139.894289 L79.5583673,139.894289 Z M41.9346939,43.9693452 L41.8302041,86.9440863 C41.7795918,107.615832 48.195102,115.583289 55.1355102,121.114497 C61.7689796,126.402162 73.6367347,131.602381 79.5746939,133.17397 C85.5208163,131.631802 97.4138776,126.488792 104.073469,121.233817 C111.04,115.736934 117.493878,107.800533 117.54449,87.1287868 L117.64898,44.1540457 C109.057959,38.8598426 96.6530612,36.2634112 79.8106122,36.2225482 C62.9689796,36.180868 50.5518367,38.7176396 41.9346939,43.9693452 L41.9346939,43.9693452 Z" id="Stroke-3" stroke="#FFFFFF" stroke-width="10" sketch:type="MSShapeGroup"></path>
                    <path d="M79.5583673,139.894289 L78.8293878,139.725117 C72.5869388,138.276934 59.1085714,132.637848 51.0677551,126.229721 C43.2383673,119.989949 35.242449,110.441096 35.2995918,86.9277411 L35.4130612,40.4469594 L36.8408163,39.4776904 C46.7502041,32.749198 60.4097959,29.6370761 79.8269388,29.6844772 C99.2440816,29.7318782 112.888163,32.910198 122.764898,39.6877259 L124.187755,40.663533 L124.075102,87.1443147 C124.017959,110.65767 115.97551,120.167294 108.115918,126.369472 C100.044082,132.737553 86.5387755,138.311259 80.2881633,139.728386 L79.5583673,139.894289 L79.5583673,139.894289 Z M41.9346939,43.9693452 L41.8302041,86.9440863 C41.7795918,107.615832 48.195102,115.583289 55.1355102,121.114497 C61.7689796,126.402162 73.6367347,131.602381 79.5746939,133.17397 C85.5208163,131.631802 97.4138776,126.488792 104.073469,121.233817 C111.04,115.736934 117.493878,107.800533 117.54449,87.1287868 L117.64898,44.1540457 C109.057959,38.8598426 96.6530612,36.2634112 79.8106122,36.2225482 C62.9689796,36.180868 50.5518367,38.7176396 41.9346939,43.9693452 L41.9346939,43.9693452 Z" id="Fill-4" fill="#85805F" sketch:type="MSShapeGroup"></path>
                    <path d="M79.8187755,32.9535127 C63.7983673,32.9142843 49.1673469,35.0579543 38.6734694,42.1836345 C38.6734694,42.1836345 38.5983673,73.3359086 38.564898,86.9359137 C38.5102041,109.334528 46.0097959,118.019538 53.1012245,123.672518 C60.6636735,129.698985 73.7893878,135.199954 79.5665306,136.540259 C85.3510204,135.228558 98.5036735,129.791335 106.094694,123.801645 C113.213878,118.183807 120.755102,109.534756 120.809796,87.1369594 C120.842449,73.5369543 120.918367,42.3838629 120.918367,42.3838629 C110.459592,35.2075127 95.8391837,32.9927411 79.8187755,32.9535127" id="Fill-5" fill="#FFFFFF" sketch:type="MSShapeGroup"></path>
                    <path d="M18.9069388,72.4418274 C18.9004082,72.4728832 18.8759184,72.4900457 18.844898,72.4843249 L11.6122449,71.0721015 C11.5804082,71.067198 11.564898,71.0418629 11.5706122,71.0099898 L12.0922449,68.3293807 C12.5314286,66.1301371 14.2840816,65.3463858 16.4734694,65.7729949 C18.682449,66.2036904 19.8571429,67.5595228 19.4285714,69.760401 L18.9069388,72.4418274 L18.9069388,72.4418274 Z M18.282449,69.5372893 C18.5257143,68.2852487 17.8032653,67.386264 16.2195918,67.0773401 C14.6457143,66.7700508 13.482449,67.301269 13.2383673,68.5524924 L12.9583673,69.9925025 C12.9526531,70.0235584 12.9714286,70.0390863 12.9918367,70.0431726 L17.9420408,71.0083553 C17.9730612,71.0140761 17.997551,70.997731 18.0040816,70.9666751 L18.282449,69.5372893 L18.282449,69.5372893 Z" id="Fill-6" fill="#514D36" sketch:type="MSShapeGroup"></path>
                    <path d="M21.4979592,58.2231574 C21.5085714,58.193736 21.5355102,58.1798426 21.564898,58.190467 L22.5673469,58.5402538 C22.597551,58.5508782 22.6106122,58.5778477 22.6,58.6080863 L20.8881633,63.5132741 C20.877551,63.5435127 20.8506122,63.5565888 20.8204082,63.5459645 L13.8677551,61.1146193 C13.837551,61.1039949 13.8244898,61.0770254 13.835102,61.0467868 L15.5469388,56.141599 C15.557551,56.1121777 15.5844898,56.0982843 15.6138776,56.1097259 L16.6163265,56.4603299 C16.6465306,56.4701371 16.6587755,56.4979239 16.6481633,56.5273452 L15.357551,60.2287107 C15.3469388,60.2589492 15.36,60.2851015 15.3893878,60.2957259 L17.1134694,60.8988629 C17.1428571,60.9094873 17.1706122,60.8955939 17.1804082,60.8661726 L18.2971429,57.6666041 C18.3077551,57.6363655 18.3346939,57.6232893 18.364898,57.6339137 L19.3665306,57.9845178 C19.3967347,57.9943249 19.4097959,58.0221117 19.3991837,58.0523503 L18.282449,61.2519188 C18.2718367,61.2813401 18.284898,61.3083096 18.315102,61.318934 L20.1387755,61.9563959 C20.1689796,61.9670203 20.1959184,61.9539442 20.2057143,61.9245228 L21.4979592,58.2231574" id="Fill-7" fill="#514D36" sketch:type="MSShapeGroup"></path>
                    <path d="M26.0008163,51.4260152 C25.9844898,51.453802 25.955102,51.4603401 25.9281633,51.4439949 L19.6269388,47.6208579 C19.6,47.6045127 19.5926531,47.5759086 19.6089796,47.5473046 L20.2146939,46.5486142 C20.2310204,46.5208274 20.2595918,46.5134721 20.2873469,46.5298173 L25.5991837,49.7530863 C25.6261224,49.7694315 25.6408163,49.7653452 25.6571429,49.7383756 L27.5281633,46.6483198 C27.5444898,46.6197157 27.5738776,46.6131777 27.6008163,46.6295228 L28.5085714,47.1803553 C28.5363265,47.1975178 28.5436735,47.2269391 28.5265306,47.2539086 L26.0008163,51.4260152" id="Fill-8" fill="#514D36" sketch:type="MSShapeGroup"></path>
                    <path d="M32.4359184,40.1919746 C32.4555102,40.1674569 32.4857143,40.1641878 32.5102041,40.183802 L33.3379592,40.8490508 C33.3632653,40.868665 33.3665306,40.8989036 33.3469388,40.9234213 L30.1020408,44.9770254 C30.082449,45.0015431 30.0522449,45.0048122 30.0277551,44.985198 L24.2816327,40.3750406 C24.2571429,40.3546091 24.2530612,40.3251878 24.2734694,40.3006701 L27.517551,36.247066 C27.5371429,36.2225482 27.5673469,36.2192792 27.5918367,36.2388934 L28.4204082,36.9033249 C28.444898,36.9229391 28.4489796,36.9531777 28.4285714,36.9785127 L25.9804082,40.0366954 C25.9608163,40.0612132 25.9640816,40.0914518 25.9885714,40.1118832 L27.4130612,41.2535939 C27.437551,41.2740254 27.4677551,41.2707563 27.4873469,41.2454213 L29.6040816,38.6015888 C29.6236735,38.5762538 29.6538776,38.5729848 29.6783673,38.592599 L30.5061224,39.2570305 C30.5314286,39.2766447 30.5338776,39.3068832 30.5142857,39.3322183 L28.3983673,41.9760508 C28.3779592,42.0005685 28.3820408,42.0299898 28.4065306,42.0512386 L29.9134694,43.2591472 C29.9379592,43.2795787 29.9673469,43.2763096 29.9877551,43.2509746 L32.4359184,40.1919746" id="Fill-9" fill="#514D36" sketch:type="MSShapeGroup"></path>
                    <path d="M37.5363265,33.0360558 C38.5665306,34.1221929 38.522449,35.8188223 37.4302041,36.8567411 C36.3461224,37.8881218 34.6440816,37.8521624 33.6138776,36.7660254 L30.2897959,33.2632538 C30.2685714,33.2395533 30.2685714,33.2093147 30.2914286,33.188066 L31.1379592,32.3838832 C31.1608163,32.361 31.1910204,32.3618173 31.2130612,32.3855178 L34.5363265,35.8891066 C35.077551,36.458736 35.9844898,36.474264 36.5542857,35.9324213 C37.1232653,35.3913959 37.1542857,34.4834213 36.6130612,33.9146091 L33.2889796,30.4110203 C33.2669388,30.3873198 33.2677551,30.3570812 33.2914286,30.3358325 L34.1371429,29.5308325 C34.16,29.5087665 34.1902041,29.5095838 34.2122449,29.532467 L37.5363265,33.0360558" id="Fill-10" fill="#514D36" sketch:type="MSShapeGroup"></path>
                    <path d="M45.3942857,30.2639137 C45.3591837,30.2892487 45.3028571,30.264731 45.2669388,30.2508376 L41.4122449,28.7699645 C41.3828571,28.7650609 41.3657143,28.7765025 41.3632653,28.7920305 L41.2016327,29.8234112 C41.1918367,29.8822538 41.1804082,29.9035025 41.2171429,29.9558071 L42.7510204,32.0962081 C42.7697959,32.1223604 42.7640816,32.1517817 42.7379592,32.1705787 L41.7893878,32.8513553 C41.7640816,32.869335 41.7338776,32.8652487 41.7159184,32.8390964 L37.4253061,26.8477716 C37.4073469,26.8224365 37.4122449,26.7930152 37.437551,26.7742183 L38.3861224,26.0934416 C38.4114286,26.0746447 38.4416327,26.0803655 38.4604082,26.1057005 L40.1232653,28.4283503 C40.1412245,28.4536853 40.195102,28.4545025 40.202449,28.4095533 L40.8922449,24.307731 C40.8955102,24.292203 40.9126531,24.2807614 40.9208163,24.2742234 L42.1795918,23.3695178 C42.2228571,23.3392792 42.2685714,23.3850457 42.2702041,23.4234569 L41.5804082,27.4729746 C41.5755102,27.5032132 41.5877551,27.5195584 41.6236735,27.5334518 L46.4742857,29.3845431 C46.5159184,29.4066091 46.5232653,29.4540102 46.4889796,29.4785279 L45.3942857,30.2639137" id="Fill-11" fill="#514D36" sketch:type="MSShapeGroup"></path>
                    <path d="M51.0220408,27.025934 C49.1559184,28.014 47.9110204,27.3626447 47.4457143,26.4808223 C47.4302041,26.4522183 47.4391837,26.4236142 47.4669388,26.4089036 L48.5461224,25.8376396 C48.5738776,25.8221117 48.6032653,25.8311015 48.6179592,25.8597056 C48.8555102,26.3100152 49.6791837,26.4146244 50.4759184,25.9929188 C51.2555102,25.580203 51.6032653,24.8315939 51.3110204,24.2774924 C51.0922449,23.8647766 50.484898,23.6694518 49.4742857,24.0960609 C47.8612245,24.7694822 46.6391837,24.8405838 45.9395918,23.5166244 C45.284898,22.2768426 46.0710204,20.9471624 47.2440816,20.3268629 C48.4914286,19.6665178 49.997551,19.7466091 50.642449,20.9667766 C50.6571429,20.9945635 50.6481633,21.0231675 50.6285714,21.0337919 L49.5412245,21.6099594 C49.5134694,21.6246701 49.484898,21.6156802 49.4693878,21.5878934 C49.2653061,21.179264 48.5681633,20.9471624 47.7893878,21.3598782 C47.1510204,21.6974061 46.8440816,22.3888071 47.1118367,22.8955076 C47.4138776,23.4675888 48.1926531,23.2371218 48.8791837,22.9690609 C49.9240816,22.5604315 51.5804082,21.9483046 52.482449,23.6571929 C53.1379592,24.8969746 52.5877551,26.1964162 51.0220408,27.025934" id="Fill-12" fill="#514D36" sketch:type="MSShapeGroup"></path>
                    <path d="M58.7322449,23.4128325 C58.7436735,23.4422538 58.7314286,23.4692234 58.7012245,23.480665 L57.6065306,23.8884772 C57.5771429,23.8991015 57.5493878,23.8868426 57.5379592,23.8566041 L55.3779592,18.0401726 C55.3665306,18.0107513 55.3387755,17.9976751 55.3093878,18.0091168 L53.4685714,18.6939797 C53.4391837,18.7046041 53.4114286,18.6931624 53.4,18.6629239 L53.0302041,17.6666853 C53.0195918,17.637264 53.0318367,17.6094772 53.0612245,17.5988528 L58.0367347,15.7461269 C58.0661224,15.7346853 58.0938776,15.7469442 58.1044898,15.7771827 L58.4742857,16.7734213 C58.4857143,16.8028426 58.4726531,16.8306294 58.4432653,16.8420711 L56.602449,17.526934 C56.5730612,17.5383756 56.5608163,17.5653452 56.5714286,17.5955838 L58.7322449,23.4128325" id="Fill-13" fill="#514D36" sketch:type="MSShapeGroup"></path>
                    <path d="M68.1787755,19.6182995 C68.2097959,19.6117614 68.235102,19.6281066 68.242449,19.6591624 L68.4791837,20.6946294 C68.4857143,20.7256853 68.4702041,20.7510203 68.4391837,20.7583756 L63.3804082,21.9164315 C63.3493878,21.9237868 63.3240816,21.9074416 63.317551,21.8763858 L61.675102,14.6894112 C61.6677551,14.6583553 61.6832653,14.6330203 61.715102,14.625665 L66.7730612,13.4667919 C66.8040816,13.4602538 66.8293878,13.476599 66.8359184,13.5076548 L67.0734694,14.5423046 C67.08,14.5741777 67.0644898,14.5995127 67.0334694,14.606868 L63.2163265,15.4805178 C63.1853061,15.4878731 63.1689796,15.5132081 63.1763265,15.544264 L63.5836735,17.3258883 C63.5902041,17.3569442 63.6163265,17.3724721 63.6473469,17.365934 L66.9469388,16.6099695 C66.9779592,16.6026142 67.0032653,16.6189594 67.0106122,16.6500152 L67.2473469,17.684665 C67.2546939,17.7157208 67.2383673,17.7418731 67.2073469,17.7484112 L63.9077551,18.5043756 C63.8759184,18.511731 63.8604082,18.537066 63.8677551,18.5681218 L64.2979592,20.4527208 C64.3053061,20.4845939 64.3306122,20.5009391 64.3616327,20.4935838 L68.1787755,19.6182995" id="Fill-14" fill="#514D36" sketch:type="MSShapeGroup"></path>
                    <path d="M77.6359184,18.2526599 C77.6040816,18.2526599 77.5722449,18.2739086 77.562449,18.3057817 L77.5012245,18.5084619 L77.1257143,19.7474264 C77.1159184,19.7891066 77.0840816,19.8005482 77.0628571,19.8005482 L75.842449,19.8185279 C75.8,19.8193452 75.7779592,19.7768477 75.7885714,19.7449746 L78.0416327,12.3585888 C78.0514286,12.3267157 78.0832653,12.3046497 78.1044898,12.3046497 L80.0146939,12.2776802 C80.0359184,12.2776802 80.0677551,12.2981117 80.0791837,12.3299848 L82.5273469,19.6501726 C82.5387755,19.6820457 82.517551,19.7245431 82.4759184,19.7253604 L81.2555102,19.7425228 C81.2342857,19.7425228 81.2016327,19.7212741 81.1902041,19.689401 L80.8253061,18.5787462 L80.7142857,18.2616497 C80.7028571,18.2297766 80.6710204,18.2093452 80.6391837,18.2101624 L77.6359184,18.2526599 L77.6359184,18.2526599 Z M77.9477551,17.0259543 C77.9379592,17.0578274 77.9591837,17.0782589 77.9910204,17.0774416 L80.2620408,17.0463858 C80.2938776,17.0455685 80.3044898,17.0243198 80.2930612,16.9924467 L79.1297959,13.501934 C79.1077551,13.4496294 79.0440816,13.4496294 79.0236735,13.5027513 L77.9477551,17.0259543 L77.9477551,17.0259543 Z" id="Fill-15" fill="#514D36" sketch:type="MSShapeGroup"></path>
                    <path d="M91.6979592,20.8801472 C91.6661224,20.8760609 91.6481633,20.8507259 91.6530612,20.8196701 L92.595102,14.7629645 C92.6040816,14.7106599 92.5232653,14.6771523 92.4906122,14.7466193 L90.1714286,20.6096345 C90.1681633,20.6317005 90.1355102,20.6366041 90.115102,20.633335 L88.1755102,20.3309492 C88.1542857,20.3276802 88.1240816,20.3121523 88.1273469,20.2917208 L87.7102041,14.0012792 C87.7004082,13.9252741 87.6130612,13.9326294 87.604898,13.9857513 L86.6636735,20.0416396 C86.6587755,20.0726954 86.6342857,20.0914924 86.602449,20.0865888 L85.4497959,19.9059746 C85.4179592,19.9010711 85.4,19.8765533 85.404898,19.8454975 L86.5379592,12.561269 C86.5428571,12.5302132 86.5673469,12.5114162 86.5983673,12.5171371 L88.7795918,12.8571168 C88.8106122,12.8620203 88.8408163,12.876731 88.8440816,12.9200457 L89.3004082,19.1737107 C89.3102041,19.2497157 89.3722449,19.2603401 89.404898,19.1900558 L91.7379592,13.3719898 C91.755102,13.3311269 91.7877551,13.3254061 91.8089796,13.3286751 L94,13.6702893 C94.0318367,13.6751929 94.0497959,13.6997107 94.044898,13.7307665 L92.9118367,21.0149949 C92.9069388,21.046868 92.882449,21.0648477 92.8514286,21.0599442 L91.6979592,20.8801472" id="Fill-16" fill="#514D36" sketch:type="MSShapeGroup"></path>
                    <path d="M98.0163265,20.8981269 C97.9861224,20.8883198 97.9493878,20.8989442 97.9289796,20.9259137 L97.804898,21.0975381 L97.044898,22.1444467 C97.0220408,22.1812234 96.9877551,22.1812234 96.9681633,22.1746853 L95.8081633,21.7905736 C95.7681633,21.7774975 95.7616327,21.7300964 95.7812245,21.7031269 L100.32898,15.4617208 C100.349388,15.433934 100.386122,15.4241269 100.406531,15.4298477 L102.221224,16.0321675 C102.241633,16.0387056 102.26449,16.0689442 102.26449,16.1024518 L102.182857,23.8255482 C102.183673,23.8590558 102.150204,23.8925635 102.110204,23.8794873 L100.950204,23.4953756 C100.929796,23.4880203 100.906122,23.4577817 100.906122,23.4242741 L100.924082,22.2539594 L100.923265,21.918066 C100.923265,21.8845584 100.899592,21.8543198 100.869388,21.8445127 L98.0163265,20.8981269 L98.0163265,20.8981269 Z M98.7126531,19.8414112 C98.6922449,19.8683807 98.7061224,19.8953503 98.7363265,19.9051574 L100.893878,20.6202589 C100.924082,20.6308832 100.941224,20.6129036 100.941224,20.5793959 L100.983673,16.8984619 C100.980408,16.8412538 100.92,16.8216396 100.882449,16.8649543 L98.7126531,19.8414112 L98.7126531,19.8414112 Z" id="Fill-17" fill="#514D36" sketch:type="MSShapeGroup"></path>
                    <path d="M106.81551,25.9831117 C106.800816,26.0117157 106.773061,26.0207056 106.74449,26.0076294 L105.693061,25.5001117 C105.66449,25.4862183 105.654694,25.4576142 105.668571,25.4290102 L108.359184,19.8430457 C108.373061,19.8144416 108.363265,19.7858376 108.333878,19.7719442 L106.566531,18.9187259 C106.537959,18.9040152 106.528163,18.8762284 106.541224,18.8476244 L107.002449,17.8906142 C107.016327,17.8620102 107.044898,17.852203 107.073469,17.8660964 L111.850612,20.172401 C111.879184,20.1862944 111.88898,20.2140812 111.875102,20.2426853 L111.414694,21.1996954 C111.400816,21.2282995 111.373061,21.2389239 111.343673,21.2242132 L109.576327,20.3709949 C109.547755,20.3579188 109.519184,20.3677259 109.506122,20.3963299 L106.81551,25.9831117" id="Fill-18" fill="#514D36" sketch:type="MSShapeGroup"></path>
                    <path d="M116.087347,30.1699289 C116.113469,30.1862741 116.12,30.2156954 116.102857,30.242665 L115.520816,31.1318426 C115.503673,31.1588122 115.474286,31.164533 115.447347,31.1473706 L111.105306,28.3016751 C111.078367,28.2836954 111.072653,28.2542741 111.089796,28.2273046 L115.124898,22.0578173 C115.142041,22.031665 115.171429,22.0251269 115.198367,22.0422893 L119.540408,24.888802 C119.567347,24.9059645 119.573061,24.9353858 119.555918,24.9623553 L118.974694,25.851533 C118.956735,25.8785025 118.927347,25.8842234 118.901224,25.8670609 L115.62449,23.7184873 C115.597551,23.7021421 115.568163,23.7070457 115.55102,23.7348325 L114.55102,25.2639239 C114.533061,25.2900761 114.539592,25.3194975 114.566531,25.3374772 L117.399184,27.1934721 C117.425306,27.2106345 117.43102,27.2408731 117.413878,27.2670254 L116.832653,28.156203 C116.81551,28.1823553 116.786122,28.1888934 116.759184,28.1709137 L113.926531,26.3149188 C113.899592,26.2969391 113.87102,26.3034772 113.853061,26.3296294 L112.795102,27.947802 C112.777959,27.9747716 112.783673,28.0041929 112.810612,28.0221726 L116.087347,30.1699289" id="Fill-19" fill="#514D36" sketch:type="MSShapeGroup"></path>
                    <path d="M123.69551,34.5912995 C122.712653,35.7215685 121.020408,35.8376193 119.883265,34.8471015 C118.755102,33.8631218 118.630204,32.1624061 119.613061,31.0321371 L122.78449,27.3855279 C122.804898,27.3618274 122.835102,27.3593756 122.859592,27.3806244 L123.739592,28.1480305 C123.764082,28.1692792 123.765714,28.1995178 123.745306,28.2232183 L120.573878,31.8698274 C120.057959,32.4623401 120.128163,33.3694975 120.72,33.8860051 C121.312653,34.4016954 122.218776,34.3469391 122.734694,33.7536091 L125.906122,30.107 C125.927347,30.0832995 125.956735,30.0808477 125.981224,30.1020964 L126.861224,30.8695025 C126.885714,30.8907513 126.888163,30.9209898 126.866939,30.9446904 L123.69551,34.5912995" id="Fill-20" fill="#514D36" sketch:type="MSShapeGroup"></path>
                    <path d="M129.397551,39.9018477 C129.382041,39.9002132 129.373878,39.9075685 129.364898,39.9288173 L127.961633,42.9420508 C127.943673,42.9853655 127.898776,42.9820964 127.87102,42.9502234 L127.069388,42.0291726 C127.05551,42.0128274 127.057959,41.9834061 127.058776,41.9678782 L128.346939,39.211264 C128.355918,39.189198 128.373061,39.1605939 128.351837,39.1360761 L127.257959,37.8783147 C127.237551,37.8546142 127.222041,37.853797 127.198367,37.8742284 L125.110204,39.6950812 C125.085714,39.7163299 125.05551,39.7138782 125.035102,39.6901777 L124.267755,38.8091726 C124.247347,38.7854721 124.249796,38.7544162 124.273469,38.7339848 L129.826939,33.8917259 C129.850612,33.8712944 129.88,33.8737462 129.901224,33.8974467 L131.942857,36.2446142 C132.730612,37.1501371 132.653061,38.5975025 131.676735,39.448269 C131.004898,40.0350609 130.131429,40.1625533 129.397551,39.9018477 L129.397551,39.9018477 Z M129.308571,38.456934 C129.68,38.8516701 130.383673,38.8998883 130.848163,38.4953452 C131.32,38.0834467 131.362449,37.3569036 130.992653,36.9319289 L129.849796,35.6185939 C129.829388,35.5940761 129.806531,35.599797 129.790204,35.6145076 L128.150204,37.0447107 C128.126531,37.0651421 128.124082,37.0953807 128.14449,37.1190812 L129.308571,38.456934 L129.308571,38.456934 Z" id="Fill-21" fill="#514D36" sketch:type="MSShapeGroup"></path>
                    <path d="M134.327347,47.9984315 C134.36,47.9894416 134.389388,47.9959797 134.406531,48.022132 L135.066122,49.0371675 C135.08898,49.0731269 135.076735,49.0943756 135.049796,49.1107208 C134.640816,49.3779645 132.563265,49.957401 131.198367,47.8562284 C129.977959,45.976533 130.648163,44.2226954 132.533878,42.9959898 C134.411429,41.7741878 136.417959,41.7848122 137.637551,43.6645076 C138.927347,45.6504467 137.772245,47.3397208 137.221224,47.6984975 C137.194286,47.7156599 137.170612,47.7189289 137.147755,47.6829695 L136.482449,46.6589442 C136.46449,46.6319746 136.471837,46.6033706 136.492245,46.5772183 C136.701224,46.3132437 137.385306,45.4379594 136.650612,44.3068731 C135.956735,43.2387157 134.60898,43.2280914 133.257143,44.1082792 C131.90449,44.988467 131.491429,46.1448883 132.185306,47.2130457 C132.925714,48.3531218 134.058776,48.0719848 134.327347,47.9984315" id="Fill-22" fill="#514D36" sketch:type="MSShapeGroup"></path>
                    <path d="M134.347755,52.9730863 C134.334694,52.9444822 134.34449,52.9166954 134.373061,52.9019848 L141.037551,49.7596244 C141.066122,49.7465482 141.093878,49.7563553 141.107755,49.7857766 L141.605714,50.8424924 C141.618776,50.8719137 141.60898,50.8997005 141.579592,50.9127766 L135.962449,53.5631472 C135.933878,53.5762234 135.92898,53.5901168 135.942041,53.6187208 L137.48,56.8877563 C137.493878,56.9163604 137.483265,56.9441472 137.454694,56.9580406 L136.494694,57.4116193 C136.465306,57.4246954 136.437551,57.4148883 136.423673,57.385467 L134.347755,52.9730863" id="Fill-23" fill="#514D36" sketch:type="MSShapeGroup"></path>
                    <path d="M141.474286,64.0681929 C140.048163,64.5258579 138.539592,63.7478274 138.08,62.3110863 C137.622857,60.8841523 138.396735,59.3632335 139.822041,58.9063858 L144.422041,57.4304162 C144.452245,57.4206091 144.479184,57.4345025 144.48898,57.4647411 L144.844898,58.5778477 C144.854694,58.6080863 144.840816,58.6358731 144.810612,58.6448629 L140.210612,60.1208325 C139.462857,60.3602893 139.053878,61.1726447 139.293061,61.9212538 C139.533061,62.6706802 140.337143,63.0940203 141.084898,62.8537462 L145.684898,61.3777766 C145.715102,61.3679695 145.742041,61.3818629 145.751837,61.4121015 L146.108571,62.5252081 C146.117551,62.556264 146.10449,62.5832335 146.073469,62.5922234 L141.474286,64.0681929" id="Fill-24" fill="#514D36" sketch:type="MSShapeGroup"></path>
                    <path d="M140.388571,71.4464061 L139.79102,67.960797 C139.786122,67.9297411 139.803265,67.9052234 139.835102,67.9003198 L147.090612,66.6531827 C147.121633,66.6482792 147.146122,66.6654416 147.151837,66.6973147 L147.749388,70.1829239 C147.951837,71.3654975 147.106939,72.3396701 145.93551,72.5407157 C145.360816,72.6396041 144.658776,72.3723604 144.364082,71.970269 C144.333878,71.9212335 144.27102,71.9326751 144.259592,71.989066 C144.096327,72.544802 143.582857,73.1283249 142.913469,73.2435584 C141.638367,73.4625838 140.60898,72.7344061 140.388571,71.4464061 L140.388571,71.4464061 Z M141.507755,71.0712843 C141.603265,71.626203 142.186122,72.0748782 142.698776,71.9874315 C143.210612,71.8991675 143.622857,71.3540558 143.528163,70.7991371 L143.162449,68.6644569 C143.155102,68.6219594 143.124082,68.6276802 143.102857,68.6317665 L141.2,68.9578528 C141.16898,68.9635736 141.15102,68.9880914 141.156735,69.0199645 L141.507755,71.0712843 L141.507755,71.0712843 Z M146.580408,70.2752741 L146.214694,68.1405939 C146.209796,68.1087208 146.186939,68.1021827 146.165714,68.1054518 L144.357551,68.4151929 C144.325714,68.4209137 144.306939,68.4356244 144.312653,68.4666802 L144.665306,70.5286244 C144.763265,70.9748477 145.222041,71.392467 145.724082,71.3066548 C146.236735,71.2183909 146.675918,70.8310102 146.580408,70.2752741 L146.580408,70.2752741 Z" id="Fill-25" fill="#514D36" sketch:type="MSShapeGroup"></path>
                    <path d="M30.4416327,128.610396 C30.4179592,128.662701 30.4620408,128.708467 30.515102,128.686401 L36.2930612,125.797391 C36.3159184,125.790853 36.3387755,125.798208 36.3526531,125.813736 L37.2081633,126.686569 C37.2367347,126.716807 37.2220408,126.761756 37.1918367,126.776467 L30.2832653,130.223665 C30.2530612,130.238376 30.2155102,130.23102 30.2008163,130.21631 L28.9077551,128.894802 C28.8930612,128.880091 28.8857143,128.842497 28.9004082,128.813076 L32.4734694,121.957909 C32.4889796,121.92767 32.5346939,121.912959 32.5640816,121.944015 L33.4179592,122.816848 C33.4326531,122.832376 33.4408163,122.854442 33.4326531,122.876508 L30.4416327,128.610396" id="Fill-26" fill="#514D36" sketch:type="MSShapeGroup"></path>
                    <path d="M36.0514286,133.471452 C36.0269388,133.452655 35.9885714,133.449386 35.9608163,133.467365 L35.7861224,133.586685 L34.7159184,134.312411 C34.6808163,134.339381 34.6497959,134.328756 34.6334694,134.314863 L33.6742857,133.559716 C33.6408163,133.533563 33.6506122,133.487797 33.6783673,133.469 L40.0693878,129.146518 C40.0971429,129.128538 40.1355102,129.131807 40.1518367,129.144883 L41.6530612,130.32664 C41.6702041,130.339716 41.682449,130.376492 41.6710204,130.407548 L38.9746939,137.638655 C38.9632653,137.670528 38.9216327,137.690959 38.8881633,137.664807 L37.9281633,136.90966 C37.9110204,136.895766 37.9004082,136.860624 37.9110204,136.827934 L38.3240816,135.734442 L38.4383673,135.418162 C38.4497959,135.386289 38.437551,135.35033 38.4122449,135.329898 L36.0514286,133.471452 L36.0514286,133.471452 Z M37.0644898,132.71467 C37.0359184,132.733467 37.04,132.763706 37.0644898,132.782503 L38.8506122,134.189005 C38.8759184,134.207802 38.8963265,134.198812 38.9085714,134.166939 L40.1967347,130.721376 C40.2130612,130.665802 40.1632653,130.627391 40.1134694,130.655178 L37.0644898,132.71467 L37.0644898,132.71467 Z" id="Fill-27" fill="#514D36" sketch:type="MSShapeGroup"></path>
                    <path d="M50.9861224,136.322051 C51.0138776,136.337579 51.0220408,136.367 51.0057143,136.39397 L47.3338776,142.789838 C47.317551,142.817624 47.2889796,142.82498 47.2604082,142.809452 L45.8906122,142.01998 C45.8628571,142.003635 45.8506122,141.96032 45.8522449,141.936619 L46.122449,135.643726 C46.1322449,135.563635 46.0571429,135.544838 46.0302041,135.590604 L43.2473469,140.436949 C43.2318367,140.465553 43.202449,140.472909 43.1755102,140.457381 L42.1526531,139.868954 C42.1338776,139.85833 42.1257143,139.829726 42.1428571,139.801939 L45.8146939,133.406888 C45.8310204,133.379102 45.8595918,133.370929 45.8873469,133.387274 L47.2595918,134.175929 C47.2865306,134.192274 47.2897959,134.230685 47.2881633,134.253569 L47.0261224,140.553 C47.0171429,140.633909 47.0914286,140.651888 47.1183673,140.605305 L49.9020408,135.758142 C49.917551,135.731173 49.9469388,135.723817 49.9746939,135.739345 L50.9861224,136.322051" id="Fill-28" fill="#514D36" sketch:type="MSShapeGroup"></path>
                    <path d="M63.8228571,141.261563 C63.8530612,141.271371 63.8669388,141.297523 63.8579592,141.328579 L61.6710204,148.367629 C61.6604082,148.397868 61.6342857,148.411761 61.6040816,148.402772 L60.0946939,147.932848 C60.0644898,147.923858 60.0432653,147.883812 60.0391837,147.860112 L58.9306122,141.662838 C58.922449,141.582746 58.844898,141.581112 58.8293878,141.631782 L57.1722449,146.967665 C57.162449,146.997904 57.1363265,147.011797 57.1061224,147.002807 L55.9812245,146.652203 C55.9608163,146.645665 55.9469388,146.619513 55.9567347,146.588457 L58.1428571,139.549406 C58.1526531,139.51835 58.1795918,139.505274 58.2106122,139.515081 L59.7191837,139.984188 C59.7493878,139.994812 59.7608163,140.030772 59.7640816,140.054472 L60.882449,146.254198 C60.8914286,146.334289 60.9681633,146.335924 60.9844898,146.285254 L62.6416327,140.949371 C62.6506122,140.919132 62.677551,140.906056 62.7077551,140.915046 L63.8228571,141.261563" id="Fill-29" fill="#514D36" sketch:type="MSShapeGroup"></path>
                    <path d="M70.9722449,149.031244 C71.0040816,149.036964 71.0220408,149.060665 71.0155102,149.092538 L70.844898,150.141898 C70.84,150.172954 70.8155102,150.189299 70.7844898,150.184396 L65.6636735,149.349157 C65.6326531,149.344254 65.6155102,149.320553 65.6204082,149.287863 L66.804898,142.012624 C66.8097959,141.980751 66.8342857,141.963589 66.8653061,141.968492 L71.9869388,142.804548 C72.0179592,142.809452 72.0359184,142.83397 72.0293878,142.865025 L71.8587755,143.913569 C71.8538776,143.945442 71.8293878,143.962604 71.7983673,143.956883 L67.9346939,143.327594 C67.9036735,143.321873 67.8783673,143.339036 67.8734694,143.370091 L67.5795918,145.173782 C67.5746939,145.204838 67.5926531,145.230173 67.6236735,145.235893 L70.964898,145.781005 C70.9967347,145.785091 71.0130612,145.809609 71.0073469,145.841482 L70.8367347,146.889208 C70.8318367,146.920264 70.8073469,146.938244 70.7763265,146.93334 L67.4359184,146.388228 C67.404898,146.383325 67.3804082,146.400487 67.3755102,146.431543 L67.0644898,148.339843 C67.0595918,148.370898 67.077551,148.396234 67.1085714,148.401137 L70.9722449,149.031244" id="Fill-30" fill="#514D36" sketch:type="MSShapeGroup"></path>
                    <path d="M74.8612245,150.611005 C74.8293878,150.610188 74.8089796,150.588122 74.8097959,150.556249 L75.0008163,143.182939 C75.0008163,143.151066 75.0228571,143.129817 75.0546939,143.130635 L77.7812245,143.201736 C80.0204082,143.270386 81.0832653,144.871396 81.0261224,147.10333 C80.9673469,149.354878 79.8269388,150.739315 77.5885714,150.681289 L74.8612245,150.611005 L74.8612245,150.611005 Z M77.6179592,149.512609 C78.8922449,149.545299 79.6579592,148.682274 79.6995918,147.069005 C79.7412245,145.463909 79.0253061,144.403107 77.7518367,144.370416 L76.2873469,144.332005 C76.2555102,144.331188 76.2440816,144.352437 76.2432653,144.373685 L76.1126531,149.421076 C76.1118367,149.452949 76.1330612,149.474198 76.164898,149.475015 L77.6179592,149.512609 L77.6179592,149.512609 Z" id="Fill-31" fill="#514D36" sketch:type="MSShapeGroup"></path>
                    <path d="M89.8914286,148.84736 C89.9232653,148.844909 89.9469388,148.862888 89.9502041,148.894761 L90.0677551,149.95066 C90.0718367,149.982533 90.0522449,150.005416 90.0204082,150.009503 L84.8604082,150.582401 C84.8285714,150.58567 84.8057143,150.56769 84.8016327,150.535817 L83.9902041,143.203371 C83.9869388,143.171497 84.004898,143.148614 84.0367347,143.145345 L89.1967347,142.572447 C89.2285714,142.569178 89.2522449,142.587157 89.2555102,142.61903 L89.3722449,143.674929 C89.3763265,143.706802 89.357551,143.730503 89.3257143,143.734589 L85.4318367,144.166102 C85.4,144.170188 85.3820408,144.193071 85.3844898,144.224944 L85.5861224,146.042528 C85.5902041,146.074401 85.6130612,146.092381 85.644898,146.089112 L89.0114286,145.714807 C89.042449,145.712355 89.0661224,145.730335 89.0693878,145.762208 L89.1869388,146.819741 C89.1902041,146.850797 89.1706122,146.87368 89.1395918,146.876949 L85.7730612,147.251254 C85.7412245,147.254523 85.7232653,147.279041 85.7265306,147.310096 L85.9387755,149.233107 C85.9428571,149.26498 85.9665306,149.283777 85.9983673,149.280508 L89.8914286,148.84736" id="Fill-32" fill="#514D36" sketch:type="MSShapeGroup"></path>
                    <path d="M97.3428571,145.245701 C97.3355102,145.258777 97.3379592,145.269401 97.3534694,145.287381 L99.3893878,147.916503 C99.4195918,147.952462 99.3967347,147.990873 99.3559184,148.00068 L98.1706122,148.293259 C98.1493878,148.29898 98.1240816,148.282635 98.1102041,148.275279 L96.2489796,145.866 C96.235102,145.848838 96.2163265,145.819416 96.1853061,145.827589 L94.5673469,146.226411 C94.5363265,146.234584 94.5281633,146.24766 94.5363265,146.278716 L95.1991837,148.971584 C95.2073469,149.00264 95.1910204,149.028792 95.16,149.036147 L94.0269388,149.31565 C93.9959184,149.323822 93.9697959,149.307477 93.962449,149.277239 L92.1991837,142.115599 C92.1918367,142.084543 92.2065306,142.059208 92.237551,142.051036 L95.2571429,141.305695 C96.4220408,141.01802 97.6734694,141.749467 97.9836735,143.008046 C98.1983673,143.87434 97.9110204,144.71203 97.3428571,145.245701 L97.3428571,145.245701 Z M96.0195918,144.663812 C96.5404082,144.514254 96.9044898,143.909482 96.7567347,143.311249 C96.6081633,142.702391 95.9804082,142.331355 95.4342857,142.46702 L93.7444898,142.883822 C93.7134694,142.89036 93.7077551,142.914061 93.7126531,142.934492 L94.2334694,145.050376 C94.2416327,145.081431 94.2669388,145.096959 94.2987755,145.089604 L96.0195918,144.663812 L96.0195918,144.663812 Z" id="Fill-33" fill="#514D36" sketch:type="MSShapeGroup"></path>
                    <path d="M102.930612,146.836086 C102.901224,146.847528 102.872653,146.836086 102.862041,146.80503 L100.198367,139.92698 C100.187755,139.897558 100.199184,139.870589 100.228571,139.85833 L101.317551,139.436624 C101.346939,139.425183 101.374694,139.437442 101.386122,139.466863 L103.630204,145.265315 C103.642449,145.294736 103.65551,145.301274 103.686531,145.289015 L107.052245,143.982218 C107.081633,143.971594 107.108571,143.983036 107.120816,144.012457 L107.503673,145.003792 C107.515918,145.03403 107.503673,145.061 107.473469,145.072442 L102.930612,146.836086" id="Fill-34" fill="#514D36" sketch:type="MSShapeGroup"></path>
                    <path d="M111.41551,141.469147 C111.387755,141.484675 111.370612,141.519 111.376327,141.55169 L111.417143,141.759274 L111.667755,143.02766 C111.679184,143.070157 111.656327,143.094675 111.638367,143.105299 L110.56898,143.69536 C110.531429,143.715792 110.492245,143.688822 110.487347,143.656132 L109.004898,136.079325 C109,136.046635 109.017959,136.01231 109.035918,136.002503 L110.708571,135.079817 C110.727347,135.069193 110.764898,135.072462 110.789388,135.094528 L116.386939,140.400173 C116.411429,140.423056 116.413878,140.470457 116.376327,140.490888 L115.308571,141.080132 C115.28898,141.089939 115.252245,141.08667 115.226939,141.064604 L114.382857,140.256335 L114.13551,140.029137 C114.11102,140.006254 114.073469,140.002985 114.044898,140.018513 L111.41551,141.469147 L111.41551,141.469147 Z M111.115102,140.23999 C111.120816,140.273497 111.149388,140.282487 111.177143,140.266959 L113.165714,139.170198 C113.193469,139.153853 113.192653,139.13097 113.168163,139.108086 L110.502041,136.576218 C110.457959,136.539442 110.402449,136.570497 110.409796,136.626888 L111.115102,140.23999 L111.115102,140.23999 Z" id="Fill-35" fill="#514D36" sketch:type="MSShapeGroup"></path>
                    <path d="M119.846531,128.825335 C119.872653,128.806538 119.902041,128.810624 119.920816,128.835959 L124.368163,134.71532 C124.386939,134.740655 124.382857,134.770076 124.356735,134.788873 L123.096327,135.744249 C123.071837,135.76468 123.026939,135.758142 123.005714,135.747518 L117.325714,133.043208 C117.25551,133.003162 117.20898,133.064457 117.240816,133.106954 L120.610612,137.56265 C120.630204,137.587985 120.626122,137.618223 120.6,137.63702 L119.661224,138.34967 C119.644898,138.361929 119.614694,138.357025 119.595918,138.33169 L115.149388,132.453964 C115.129796,132.428629 115.133878,132.398391 115.159184,132.379594 L116.419592,131.423401 C116.444898,131.404604 116.481633,131.416863 116.502857,131.427487 L122.191837,134.125259 C122.261224,134.165305 122.307755,134.103193 122.275918,134.06233 L118.905306,129.605817 C118.886531,129.579665 118.890612,129.550244 118.915918,129.531447 L119.846531,128.825335" id="Fill-36" fill="#514D36" sketch:type="MSShapeGroup"></path>
                    <path d="M127.564898,131.997934 C127.542041,132.020817 127.511837,132.020817 127.489796,131.997117 L122.246531,126.818147 C122.223673,126.796081 122.223673,126.765843 122.245714,126.742959 L124.161633,124.799518 C125.742041,123.210766 127.635102,123.52868 129.222041,125.096183 C130.823673,126.679213 131.053061,128.457569 129.48,130.052858 L127.564898,131.997934 L127.564898,131.997934 Z M128.64898,129.23233 C129.542857,128.325173 129.438367,127.176107 128.289796,126.041751 C127.149388,124.913934 125.886531,124.712071 124.991837,125.620863 L123.963265,126.664503 C123.941224,126.687386 123.948571,126.710269 123.963265,126.724162 L127.552653,130.269431 C127.574694,130.291497 127.604898,130.291497 127.627755,130.268614 L128.64898,129.23233 L128.64898,129.23233 Z" id="Fill-37" fill="#514D36" sketch:type="MSShapeGroup"></path>
                    <path d="M18.8922449,97.7874772 C19.1885714,98.8164061 18.5942857,99.8911015 17.5665306,100.187766 C16.5379592,100.483614 15.4644898,99.889467 15.1681633,98.8597208 C14.8726531,97.8299746 15.4661224,96.7552792 16.4946939,96.4594315 C17.5232653,96.1635838 18.5967347,96.757731 18.8922449,97.7874772" id="Fill-38" fill="#85805F" sketch:type="MSShapeGroup"></path>
                    <path d="M18.404898,101.970208 C18.8995918,101.971025 19.3412245,102.305284 19.4783673,102.782563 C19.6489796,103.377528 19.3053061,104.000279 18.7110204,104.171086 C18.6081633,104.201325 18.5028571,104.216036 18.397551,104.216036 C17.9020408,104.214401 17.4604082,103.880142 17.3232653,103.402863 C17.1526531,102.808716 17.4971429,102.185147 18.0906122,102.01434 C18.1934694,101.984102 18.2995918,101.969391 18.404898,101.970208 M18.4065306,101.152949 C18.2277551,101.152132 18.0457143,101.17665 17.8653061,101.228954 C16.8367347,101.524802 16.2432653,102.599497 16.5387755,103.629244 C16.7828571,104.477558 17.555102,105.030843 18.395102,105.033294 C18.5738776,105.033294 18.7559184,105.008777 18.9363265,104.956472 C19.964898,104.660624 20.5583673,103.585929 20.2628571,102.556183 C20.0187755,101.707868 19.2465306,101.154584 18.4065306,101.152949" id="Fill-39" fill="#85805F" sketch:type="MSShapeGroup"></path>
                    <path d="M140.94449,98.0849594 C140.643265,99.1130711 141.231837,100.190218 142.258776,100.491787 C143.285714,100.792538 144.361633,100.203294 144.662857,99.1751827 C144.964082,98.1470711 144.374694,97.0699239 143.348571,96.7691726 C142.321633,96.4676041 141.244898,97.0568477 140.94449,98.0849594" id="Fill-40" fill="#85805F" sketch:type="MSShapeGroup"></path>
                    <path d="M141.411429,102.270142 C141.516735,102.270142 141.622041,102.28567 141.724898,102.315091 C142.318367,102.489168 142.659592,103.114371 142.485714,103.708518 C142.346122,104.18498 141.902857,104.516787 141.408163,104.51597 C141.302857,104.515152 141.197551,104.499624 141.094694,104.470203 C140.807347,104.385208 140.569796,104.19397 140.426122,103.930812 C140.282449,103.668472 140.249796,103.365269 140.333878,103.076777 C140.473469,102.600315 140.916735,102.268508 141.411429,102.270142 M141.413878,101.452066 C140.573878,101.450431 139.798367,101.999629 139.550204,102.847127 C139.249796,103.875239 139.838367,104.953203 140.865306,105.253954 C141.045714,105.307076 141.226939,105.332411 141.405714,105.333228 C142.245714,105.334863 143.021224,104.785665 143.269388,103.938168 C143.569796,102.910056 142.981224,101.832091 141.954286,101.53134 C141.773878,101.478218 141.592653,101.452883 141.413878,101.452066" id="Fill-41" fill="#85805F" sketch:type="MSShapeGroup"></path>
                    <g id="Group-46" transform="translate(41.632653, 36.776650)">
                        <mask id="mask-2" sketch:name="Clip 43" fill="white">
                            <use xlink:href="#path-1"></use>
                        </mask>
                        <g id="Clip-43"></g>
                        <path d="M78.5208163,-28.1390406 L80.2840816,-29.9035025 L79.5526531,-30.6349492 L81.4334694,-32.5170964 L78.277551,-35.6766193 L74.6342857,-32.0300102 L72.2604082,-34.406599 L74.0228571,-36.1710609 L73.2416327,-36.9539949 L75.1216327,-38.8361421 L71.9657143,-41.995665 L68.322449,-38.3482386 L65.9991837,-40.6749746 L67.762449,-42.4394365 L66.9297959,-43.2730406 L68.8097959,-45.1551878 L65.6538776,-48.3147107 L62.0114286,-44.6672843 L59.7387755,-46.942533 L61.5012245,-48.7069949 L60.6179592,-49.591269 L62.4979592,-51.4742335 L59.3420408,-54.6337563 L55.6995918,-50.9863299 L53.4783673,-53.2100914 L55.2408163,-54.9745533 L54.3061224,-55.9103147 L56.1861224,-57.7924619 L53.0302041,-60.9519848 L49.3877551,-57.3053756 L47.2171429,-59.478467 L48.9804082,-61.2429289 L47.9942857,-62.2293604 L49.875102,-64.1115076 L46.7191837,-67.2710305 L43.0759184,-63.6244213 L40.9567347,-65.7460254 L42.7191837,-67.5104873 L41.682449,-68.5484061 L43.5632653,-70.4305533 L40.4073469,-73.5900761 L36.7640816,-69.9426497 L34.6955102,-72.014401 L36.4587755,-73.7788629 L35.3714286,-74.8674518 L37.2514286,-76.749599 L34.0955102,-79.9091218 L-72.1167347,26.4252487 L-71.0040816,27.5391726 L-72.884898,29.4213198 L-69.7542857,32.5555076 L-71.5167347,34.3199695 L-68.3902041,37.4500711 L-64.7477551,33.8026447 L-64.7436735,33.806731 L-66.6236735,35.6888782 L-63.5012245,38.8148934 L-65.2644898,40.5793553 L-62.1379592,43.7094569 L-58.4946939,40.0628477 L-58.4832653,40.0751066 L-60.3632653,41.9572538 L-57.2489796,45.0750964 L-59.0114286,46.8395584 L-55.884898,49.9696599 L-52.242449,46.3222335 L-52.2220408,46.342665 L-54.1020408,48.2248122 L-50.9959184,51.3344822 L-52.7583673,53.0997614 L-49.6326531,56.2290457 L-45.9893878,52.5824365 L-45.9616327,52.6102234 L-47.8416327,54.4931878 L-44.7436735,57.5946853 L-46.5061224,59.3591472 L-43.3795918,62.4892487 L-39.7371429,58.8426396 L-39.7004082,58.878599 L-41.5804082,60.7607462 L-38.4906122,63.8540711 L-40.2530612,65.6193503 L-37.1265306,68.7494518 L-33.4840816,65.1020254 L-33.44,65.1461574 L-35.32,67.0283046 L-32.2383673,70.1142741 L-34.0008163,71.878736 L-30.8742857,75.0088376 L-27.2310204,71.3622284 L-27.1795918,71.414533 L-29.0595918,73.2966802 L-25.9853061,76.3744772 L-27.7477551,78.1389391 L-24.6212245,81.2690406 L81.5910204,-25.0653299 L78.5208163,-28.1390406" id="Fill-42" fill="#80B441" sketch:type="MSShapeGroup" mask="url(#mask-2)"></path>
                        <path d="M123.928163,60.7926193 L123.67102,60.5343655 L125.172245,59.0314264 L122.652245,56.507731 L119.742857,59.4204416 L117.52,57.1958629 L118.928163,55.7860914 L118.630204,55.4877919 L120.131429,53.9848528 L117.611429,51.4611574 L114.702041,54.373868 L112.52,52.1901523 L113.928163,50.7803807 L113.589388,50.4412183 L115.090612,48.9382792 L112.570612,46.4145838 L109.661224,49.3272944 L107.52,47.1836244 L108.928163,45.7746701 L108.548571,45.3946447 L110.049796,43.8917056 L107.529796,41.3680102 L104.620408,44.2807208 L102.52,42.178731 L103.927347,40.7689594 L103.507755,40.3480711 L105.00898,38.845132 L102.48898,36.3214365 L99.5795918,39.2341472 L97.52,37.172203 L98.9273469,35.7632487 L98.4669388,35.3023147 L99.9681633,33.7985584 L97.4481633,31.2756802 L94.5387755,34.1875736 L92.52,32.1664924 L93.9273469,30.7575381 L93.4261224,30.2557411 L94.9281633,28.7519848 L92.4073469,26.2291066 L89.4979592,29.141 L87.52,27.1607817 L88.9273469,25.7518274 L86.4277551,23.2485635 L1.60163265,108.171569 L4.04979592,110.622528 L2.64244898,112.032299 L5.13877551,114.531477 L8.04816327,111.618766 L8.10367347,111.673523 L6.60163265,113.177279 L9.04408163,115.622518 L7.63591837,117.031472 L10.1330612,119.53065 L13.042449,116.617939 L13.1036735,116.679234 L11.6016327,118.18299 L14.037551,120.62169 L12.6293878,122.030645 L15.1265306,124.53064 L18.0359184,121.617929 L18.1036735,121.685761 L16.6016327,123.188701 L19.0310204,125.620863 L17.6236735,127.029817 L20.12,129.529812 L23.0293878,126.617102 L23.1036735,126.691472 L21.6016327,128.194411 L24.0244898,130.620036 L22.6171429,132.029807 L25.1142857,134.528985 L28.0228571,131.616274 L28.1036735,131.697183 L26.602449,133.200122 L29.0187755,135.619208 L27.6106122,137.02898 L30.1077551,139.528157 L33.0171429,136.616264 L33.1036735,136.702893 L31.602449,138.205832 L34.0122449,140.619198 L32.6040816,142.028152 L35.1012245,144.528147 L38.0106122,141.615437 L38.1036735,141.708604 L36.602449,143.21236 L39.0057143,145.618371 L37.5983673,147.027325 L40.0946939,149.52732 L124.920816,64.6043147 L122.520816,62.2015736 L123.928163,60.7926193" id="Fill-44" fill="#602972" sketch:type="MSShapeGroup" mask="url(#mask-2)"></path>
                        <path d="M95.482449,-29.8168731 L95.0391837,-30.2606447 L95.8057143,-31.0280508 L94.5191837,-32.3152335 L-16.5028571,78.8344264 L-16.0497959,79.2880051 L-16.8163265,80.0554112 L-15.5404082,81.3319695 L-16.2587755,82.0511574 L-14.9844898,83.3260812 L-13.5004082,81.8403046 L-13.4987755,81.8419391 L-14.2653061,82.6093452 L-12.9926531,83.8826345 L-13.7110204,84.6018223 L-12.437551,85.8767462 L-10.9526531,84.3909695 L-10.9477551,84.3958731 L-11.7142857,85.1624619 L-10.444898,86.4332995 L-11.1632653,87.1524873 L-9.88979592,88.4274112 L-8.40571429,86.9416345 L-8.39755102,86.9498071 L-9.16326531,87.7163959 L-7.89795918,88.9839645 L-8.6155102,89.702335 L-7.34204082,90.9780761 L-5.85795918,89.4922995 L-5.84653061,89.5037411 L-6.6122449,90.2703299 L-5.35020408,91.5346294 L-6.06857143,92.253 L-4.79428571,93.5287411 L-3.31020408,92.0421472 L-3.2955102,92.0576751 L-4.06122449,92.824264 L-2.80244898,94.0844772 L-3.52081633,94.803665 L-2.24653061,96.0794061 L-0.76244898,94.5928122 L-0.744489796,94.6107919 L-1.51102041,95.378198 L-0.254693878,96.6351421 L-0.973061224,97.3543299 L0.300408163,98.6292538 L1.78530612,97.1434772 L1.80653061,97.1647259 L1.04,97.932132 L2.29306122,99.1858071 L1.57469388,99.9049949 L2.84816327,101.179919 L113.87102,-9.96974112 L112.620408,-11.2217817 L113.338776,-11.9409695 L113.040816,-12.2384518 L113.806531,-13.0058579 L112.520816,-14.2930406 L111.036735,-12.807264 L110.069388,-13.7757157 L110.787755,-14.4949036 L110.468571,-14.8136345 L111.235102,-15.5802234 L109.949388,-16.8674061 L108.465306,-15.3816294 L107.518367,-16.3296497 L108.236735,-17.0480203 L107.897143,-17.388 L108.663673,-18.1545888 L107.377959,-19.4425888 L105.893061,-17.9559949 L104.967347,-18.8827665 L105.685714,-19.6019543 L105.325714,-19.9623655 L106.091429,-20.7297716 L104.805714,-22.0169543 L103.321633,-20.5311777 L102.416327,-21.4367005 L103.134694,-22.1558883 L102.754286,-22.536731 L103.52,-23.3041371 L102.234286,-24.5913198 L100.750204,-23.1055431 L99.8661224,-23.9906345 L100.583673,-24.7098223 L100.182857,-25.1119137 L100.948571,-25.8785025 L99.6628571,-27.1656853 L98.1787755,-25.6799086 L97.315102,-26.5445685 L98.0334694,-27.2637563 L97.6106122,-27.6862792 L98.3771429,-28.452868 L97.0914286,-29.7400508 L95.6065306,-28.2542741 L94.7640816,-29.0985025 L95.482449,-29.8168731" id="Fill-45" fill="#E25F29" sketch:type="MSShapeGroup" mask="url(#mask-2)"></path>
                    </g>
                    <path d="M80.2808163,63.6456701 L80.2808163,63.6456701 C85.2155102,63.6579289 89.6897959,65.6830964 92.9265306,68.9398731 C96.162449,72.1958325 98.1632653,76.6842183 98.1518367,81.6229137 L98.1518367,81.6261827 C98.1395918,86.5656954 96.1167347,91.0450914 92.8636735,94.2855228 C89.6114286,97.5259543 85.1281633,99.5282386 80.195102,99.516797 L80.1926531,99.516797 C75.2579592,99.5045381 70.7836735,97.4793706 67.5469388,94.2234112 C64.3110204,90.9666345 62.3102041,86.4782487 62.3216327,81.5395533 L62.3216327,81.5371015 C62.3338776,76.5967716 64.3567347,72.1173756 67.6089796,68.8777614 C70.8612245,65.6373299 75.3453061,63.6342284 80.2783673,63.6456701 L80.2808163,63.6456701 L80.2808163,63.6456701 Z M95.1436735,81.6180102 L95.1436735,81.6155584 L95.1436735,81.6180102 Z M80.2008163,96.505198 L80.202449,96.505198 L80.2008163,96.505198 Z M65.3297959,81.5444569 L65.3297959,81.5452741 L65.3297959,81.5444569 Z" id="Fill-47" fill="#FFFFFF" sketch:type="MSShapeGroup"></path>
                    <path d="M80.2685714,68.3906751 L80.2693878,68.3906751 C83.8979592,68.399665 87.1885714,69.8895279 89.5689796,72.2840964 C91.9493878,74.678665 93.4204082,77.9795736 93.4122449,81.6122893 L93.4122449,81.6139239 C93.4032653,85.2466396 91.915102,88.5410102 89.5232653,90.9241371 C87.1314286,93.307264 83.8342857,94.7807817 80.2057143,94.7717919 L80.2040816,94.7717919 C76.5755102,94.762802 73.284898,93.2737563 70.9044898,90.8783706 C68.5240816,88.483802 67.0530612,85.1828934 67.0612245,81.5509949 L67.0612245,81.5485431 C67.0702041,77.9158274 68.557551,74.6214569 70.9502041,72.2383299 C73.3420408,69.855203 76.6391837,68.3825025 80.2677551,68.3906751 L80.2685714,68.3906751 L80.2685714,68.3906751 Z M75.1542857,92.1483909 L79.4783673,91.3703604 L79.5289796,87.4131929 L74.9714286,84.0812284 L71.1983673,85.3389898 L71.1118367,84.7342183 L71.8310204,89.7415635 C71.8661224,89.7783401 71.9012245,89.8142995 71.9371429,89.8494416 C72.8677551,90.7860203 73.9542857,91.5665025 75.1542857,92.1483909 L75.1542857,92.1483909 Z M80.9355102,91.3630051 L85.3469388,92.1344975 C86.5183673,91.5624162 87.5812245,90.8015482 88.4955102,89.8903046 C88.5861224,89.8004061 88.6742857,89.7088731 88.7616327,89.6157056 L89.2881633,85.3447107 L85.5453061,84.114736 L80.9853061,87.4140102 L80.9355102,91.3630051 L80.9355102,91.3630051 Z M82.44,93.1045838 L80.2097959,92.7147513 L78.0383673,93.105401 C78.7420408,93.2402487 79.4669388,93.3113503 80.2073469,93.313802 L80.2097959,93.313802 C80.9722449,93.3154365 81.717551,93.2435178 82.44,93.1045838 L82.44,93.1045838 Z M86.6081633,74.1760508 L84.2840816,77.352736 L86.0171429,82.7368376 L89.7469388,83.9635431 L91.8538776,80.0382487 C91.6636735,78.6031421 91.2130612,77.2489442 90.5518367,76.0246904 L86.6081633,74.1760508 L86.6081633,74.1760508 Z M83.1159184,76.4799036 L85.435102,73.3089391 L82.2922449,70.0300964 C81.6334694,69.9132284 80.9567347,69.8511168 80.2661224,69.8494822 L80.2636735,69.8494822 C79.5240816,69.8478477 78.8,69.9148629 78.0971429,70.0456244 L75.0816327,73.2231269 L77.4514286,76.4660102 L80.2816327,76.4725482 L83.1159184,76.4799036 L83.1159184,76.4799036 Z M73.9134694,74.0902386 L69.9216327,76.0246904 C69.2653061,77.2391371 68.8163265,78.5818934 68.6244898,80.0039239 L70.7444898,83.9578223 L74.5191837,82.6992437 L74.4065306,83.0449442 L76.2783673,77.3249492 L73.9134694,74.0902386 L73.9134694,74.0902386 Z M71.724898,73.5312335 L73.6857143,72.5807614 L75.1893878,70.997731 C73.9934694,71.572264 72.9085714,72.3445736 71.9779592,73.2721624 C71.8922449,73.3571574 71.8081633,73.4437868 71.724898,73.5312335 L71.724898,73.5312335 Z M85.1893878,70.9519645 L86.8465306,72.680467 L88.8155102,73.6039695 C88.7240816,73.5050812 88.6310204,73.4078274 88.5363265,73.3130254 C87.5722449,72.3429391 86.4408163,71.5395736 85.1893878,70.9519645 L85.1893878,70.9519645 Z M91.8571429,83.1005178 L90.7853061,85.0978985 L90.5281633,87.1810914 C91.2065306,85.9388579 91.6669388,84.5609594 91.8571429,83.1005178 L91.8571429,83.1005178 Z M70.0097959,87.2979594 L69.6897959,85.0668426 L68.6106122,83.0547513 C68.802449,84.5781218 69.2889796,86.0124112 70.0097959,87.2979594 L70.0097959,87.2979594 Z M78.1053061,84.569132 L80.2587755,86.1431726 L84.5795918,83.0163401 L82.9444898,77.9378934 L80.2783673,77.9305381 L77.6122449,77.9248173 L75.9526531,82.9959086 L78.1053061,84.569132 L78.1053061,84.569132 Z" id="Fill-48" fill="#514D36" sketch:type="MSShapeGroup"></path>
                    <path d="M80.2057143,95.1223959 C76.6,95.1134061 73.2089796,93.6938274 70.6563265,91.1251827 C68.1036735,88.5573553 66.7028571,85.1567411 66.7110204,81.5501777 C66.72,77.9403452 68.1379592,74.546269 70.7036735,71.9898832 C73.2685714,69.435132 76.6653061,68.0318985 80.2685714,68.0408883 L80.2702041,68.0408883 C83.8734694,68.0498782 87.2644898,69.4686396 89.8171429,72.0372843 C92.3697959,74.6051117 93.7706122,78.0057259 93.762449,81.6131066 C93.7526531,85.2229391 92.3346939,88.6170152 89.7697959,91.1725838 C87.204898,93.7281523 83.8081633,95.1305685 80.2057143,95.1223959 L80.2057143,95.1223959 Z M80.2661224,68.7412792 C76.8506122,68.7331066 73.6293878,70.0636041 71.197551,72.4867766 C68.7640816,74.9107665 67.4195918,78.129132 67.4114286,81.5493604 C67.4032653,84.9712234 68.7314286,88.1961269 71.1518367,90.6315584 C73.5738776,93.0669898 76.7877551,94.4130152 80.204898,94.4211878 C83.6228571,94.4293604 86.8440816,93.0996802 89.2767347,90.6765076 C91.7093878,88.2525178 93.0538776,85.0341523 93.0620408,81.6131066 C93.0702041,78.1912437 91.7420408,74.9663401 89.3216327,72.5317259 C86.9004082,70.0954772 83.684898,68.7494518 80.2685714,68.7412792 L80.2693878,68.3906751 L80.2661224,68.7412792 L80.2661224,68.7412792 Z M80.2089796,93.6635888 C79.4579592,93.6619543 78.7061224,93.5900355 77.9730612,93.449467 L76.12,93.0947766 L80.2089796,92.3592437 L84.3820408,93.0882386 L82.5061224,93.4486497 C81.7534694,93.5933046 80.9804082,93.6652234 80.2089796,93.6635888 L80.2089796,93.6635888 Z M72.1616327,89.5789289 L72.1853061,89.6034467 C73.0702041,90.4934416 74.0857143,91.2265228 75.204898,91.7830761 L79.1322449,91.0769645 L79.1771429,87.5889036 L74.9110204,84.4710609 L71.5861224,85.5784467 L72.1616327,89.5789289 L72.1616327,89.5789289 Z M81.2889796,91.0696091 L85.2946939,91.7691827 C86.3869388,91.2232538 87.3804082,90.507335 88.2489796,89.6426751 C88.3102041,89.582198 88.3697959,89.5209036 88.4285714,89.4587919 L88.9053061,85.5874365 L85.6057143,84.502934 L81.3330612,87.5946244 L81.2889796,91.0696091 L81.2889796,91.0696091 Z M70.6236735,89.1073706 L69.7053061,87.4695838 C68.9428571,86.1112995 68.4579592,84.6410508 68.2628571,83.0988832 L68.0269388,81.2257259 L70.0269388,84.9565127 L70.6236735,89.1073706 L70.6236735,89.1073706 Z M89.9567347,88.9586294 L90.4457143,84.9900203 L92.4506122,81.2559645 L92.2040816,83.1462843 C92.0114286,84.6247056 91.5510204,86.0385635 90.8359184,87.3494467 L89.9567347,88.9586294 L89.9567347,88.9586294 Z M78.3110204,84.2863604 L80.2595918,85.7108426 L84.1689796,82.8814924 L82.6897959,78.2868629 L77.8653061,78.2754213 L76.3640816,82.8626954 L78.3110204,84.2863604 L78.3110204,84.2863604 Z M68.9869388,79.9385431 L70.9134694,83.5328477 L74.2416327,82.4230102 L75.8897959,77.3862437 L73.8040816,74.5323756 L70.1763265,76.2902995 C69.5722449,77.4352792 69.1722449,78.6611675 68.9869388,79.9385431 L68.9869388,79.9385431 Z M86.2955102,82.4597868 L89.5771429,83.5385685 L91.4914286,79.972868 C91.3085714,78.6840508 90.9069388,77.4475381 90.2979592,76.2927513 L86.7208163,74.6149188 L84.6718367,77.4148477 L86.2955102,82.4597868 L86.2955102,82.4597868 Z M77.6293878,76.1154061 L82.9379592,76.1284822 L84.9795918,73.3391777 L82.1191837,70.3561827 C80.8538776,70.1428782 79.5322449,70.1494162 78.2718367,70.3700761 L75.5363265,73.2525482 L77.6293878,76.1154061 L77.6293878,76.1154061 Z M70.1469388,74.685203 L71.4718367,73.2901421 C71.557551,73.2002437 71.6432653,73.1111624 71.7314286,73.0237157 C72.6987755,72.0593503 73.8114286,71.2706954 75.0383673,70.6814518 L76.7559184,69.8560203 L73.8955102,72.8684365 L70.1469388,74.685203 L70.1469388,74.685203 Z M90.2963265,74.6843858 L86.6391837,72.9705939 L83.6318367,69.8331371 L85.3379592,70.634868 C86.6204082,71.2380051 87.7804082,72.055264 88.7844898,73.0653959 C88.8816327,73.163467 88.9779592,73.2639898 89.0718367,73.3653299 L90.2963265,74.6843858 L90.2963265,74.6843858 Z" id="Fill-49" fill="#FFFFFF" sketch:type="MSShapeGroup"></path>
                    <path d="M80.244898,95.1681624 C72.7616327,95.1501827 66.6873469,89.0395381 66.7053061,81.5460914 C66.7240816,74.0534619 72.8277551,67.9730558 80.3110204,67.9910355 C87.7959184,68.0090152 93.8702041,74.1196599 93.8522449,81.6122893 C93.8342857,89.105736 87.7297959,95.1869594 80.244898,95.1681624 L80.244898,95.1681624 Z M80.3085714,69.1114975 C73.4416327,69.094335 67.8416327,74.6737614 67.8244898,81.5485431 C67.8081633,88.4241421 73.3804082,94.0313553 80.2481633,94.0477005 C87.115102,94.0648629 92.7159184,88.4846193 92.7330612,81.6098376 C92.7493878,74.7342386 87.1755102,69.1278426 80.3085714,69.1114975 L80.3085714,69.1114975 Z" id="Fill-50" fill="#514D36" sketch:type="MSShapeGroup"></path>
                    <path d="M69.3485714,75.6070711 L74.484898,73.1471218 L77.8114286,69.1049594 L75.4236735,69.3051878 L70.1510204,73.1087107 L69.3485714,75.6070711" id="Fill-51" fill="#514D36" sketch:type="MSShapeGroup"></path>
                    <path d="M91.0481633,75.6601929 L85.9240816,73.1749086 L82.6171429,69.1172183 L85.0040816,69.3288883 L90.2579592,73.1577462 L91.0481633,75.6601929" id="Fill-52" fill="#514D36" sketch:type="MSShapeGroup"></path>
                    <path d="M92.5510204,80.0341624 L89.8334694,85.0439594 L89.5085714,90.2703299 L91.324898,88.7060964 L93.3657143,82.5292538 L92.5510204,80.0341624" id="Fill-53" fill="#514D36" sketch:type="MSShapeGroup"></path>
                    <path d="M74.9485714,92.7384518 L80.5542857,91.7405787 L85.6097959,93.0841523 L83.5534694,94.3149442 L77.0546939,94.3002335 L74.9485714,92.7384518" id="Fill-54" fill="#514D36" sketch:type="MSShapeGroup"></path>
                    <path d="M67.8881633,80.0513249 L70.5812245,85.074198 L70.88,90.302203 L69.0718367,88.7289797 L67.0612245,82.5415127 L67.8881633,80.0513249" id="Fill-55" fill="#514D36" sketch:type="MSShapeGroup"></path>
                    <path d="M77.0261224,77.2840863 L83.3526531,77.298797 L85.4114286,83.0956142 L80.2653061,87.1565736 L75.1591837,83.5034264 L77.0261224,77.2840863" id="Fill-56" fill="#514D36" sketch:type="MSShapeGroup"></path>
                </g>
            </g>
        </g>
    </g>
</svg>